<svg width="48" height="48" viewBox="0 0 48 48" fill="none" xmlns="http://www.w3.org/2000/svg">
<path d="M22 10H26V38H22V10ZM10 24C12.2 24 14 22.2 14 20C14 17.8 12.2 16 10 16C7.8 16 6 17.8 6 20C6 22.2 7.8 24 10 24ZM15.56 27.16C13.86 26.42 11.98 26 10 26C8.02 26 6.14 26.42 4.44 27.16C2.96 27.8 2 29.24 2 30.86V32H18V30.86C18 29.24 17.04 27.8 15.56 27.16ZM38 24C40.2 24 42 22.2 42 20C42 17.8 40.2 16 38 16C35.8 16 34 17.8 34 20C34 22.2 35.8 24 38 24ZM43.56 27.16C41.86 26.42 39.98 26 38 26C36.02 26 34.14 26.42 32.44 27.16C30.96 27.8 30 29.24 30 30.86V32H46V30.86C46 29.24 45.04 27.8 43.56 27.16Z" fill="#354E43"/>
</svg>
