<svg width="500" height="134" viewBox="0 0 500 134" fill="none" xmlns="http://www.w3.org/2000/svg">
<path d="M300.401 1.828C264.565 1.828 235.493 30.9215 235.493 66.8153H235.478C235.478 102.709 264.551 131.803 300.387 131.803C318.172 131.803 335.807 123.538 348.223 110.038L348.165 110.081C349.479 108.634 350.279 106.696 350.279 104.582C350.279 100.031 346.59 96.3563 342.039 96.3563C339.678 96.3563 337.545 97.3417 336.041 98.9412L335.983 98.9555C326.596 109.105 313.326 115.293 300.416 115.293C273.643 115.274 252.009 93.5881 252.009 66.8153C252.009 40.0426 273.643 18.3373 300.416 18.3373C313.326 18.3373 326.598 24.5259 336.005 34.6751H336.041C337.545 36.2932 339.677 37.2815 342.039 37.2815C346.59 37.2815 350.286 33.5875 350.286 29.0554C350.286 26.9227 349.487 25.0019 348.173 23.5357L348.258 23.5714C335.824 10.0898 318.186 1.828 300.401 1.828ZM235.293 2.16361L143.192 2.17076V18.1445L181.259 18.1587L181.216 131.346H197.233L197.29 18.1802L235.336 18.1373L235.293 2.16361ZM94.6927 2.22788C59.3511 2.22788 41.6803 43.6414 40.3093 46.9928C40.2522 47.1451 9.63526 114.139 1.82812 131.181H19.4799L45.1292 74.87H108.688V131.181H124.726V2.22788H94.6927ZM376.778 2.22788V131.196H392.816V74.8914H456.375L482.025 131.196H499.676C491.869 114.153 461.233 47.1856 461.195 47.0142C459.824 43.6629 442.153 2.22788 406.812 2.22788H376.778ZM392.031 17.459L406.026 17.4804C431.162 17.4804 445.636 52.4411 445.636 52.4411L447.942 57.4896L443.715 57.5039V57.5253L392.031 57.5039V17.459ZM108.688 18.2444V58.2894H56.9899V58.2679H52.784L55.069 53.2052C55.069 53.2052 69.5575 18.2587 94.6927 18.2587L108.688 18.2444ZM277.78 57.8109C272.886 57.8249 268.947 61.712 268.947 66.5297C268.947 71.3472 272.907 75.2556 277.801 75.2556H277.951H342.067C346.98 75.2556 350.957 71.3472 350.957 66.5297C350.957 61.712 346.98 57.8109 342.067 57.8109H277.78Z" fill="#232323"/>
</svg>
