<svg width="500" height="189" viewBox="0 0 500 189" fill="none" xmlns="http://www.w3.org/2000/svg">
<g clip-path="url(#clip0_5_840)">
<path fill-rule="evenodd" clip-rule="evenodd" d="M330.955 78.9986H347.957V62.2108H330.955V78.9986ZM330.955 157.997H347.957V85.5815H330.955V157.997ZM464.636 142.846C452 142.846 449.438 138.236 449.438 121.303C449.438 104.364 452 99.1631 464.636 99.1631C479.233 99.1631 483.147 103.179 483.147 121.303C483.147 139.425 479.233 142.846 464.636 142.846ZM484.647 85.5803V91.2911C478.938 86.2434 469.607 84.3077 461.78 84.3077C436.5 84.3077 432.44 99.314 432.44 121.303C432.44 138.686 434.097 157.997 461.93 157.997C469.001 157.997 477.728 156.362 482.996 151.606C482.996 155.322 483.147 160.551 482.699 164.264C481.791 171.097 474.72 174.067 464.94 174.067C455.459 174.067 452.462 171.428 452.462 166.227H433.945C433.945 184.654 450.645 188.333 465.388 188.333C478.938 188.333 496.69 184.768 499.399 167.533C500 163.519 500 156.958 500 150.272V85.5803H484.647H484.647ZM394.951 84.3077C384.57 84.3077 377.951 87.5764 373.735 91.2911V85.5803H358.99V157.997H375.991V124.272C375.991 111.646 374.639 99.1631 392.994 99.1631C407.746 99.1631 406.388 105.85 406.388 119.815V157.997H423.393V118.478C423.393 102.733 424.597 84.3077 394.951 84.3077ZM299.029 84.3077C290.448 84.3077 283.68 86.9831 278.862 92.0379V85.5803H264.12V157.997H281.122V126.502C281.122 120.857 280.822 112.834 282.781 107.634C284.582 102.733 288.949 99.0179 296.02 99.0179C303.095 99.0179 305.899 100.503 305.899 107.189H322.802C322.802 91.2911 314.831 84.3077 299.029 84.3077V84.3077ZM222.961 144.032C208.363 144.032 204.149 140.022 204.149 121.897C204.149 103.766 208.363 99.7588 222.961 99.7588C235.6 99.7588 238.306 104.959 238.306 121.897C238.306 138.834 235.6 144.032 222.961 144.032ZM226.72 84.3077C218.747 84.3077 210.016 85.2018 204.45 90.8487V62.1621H187.448V157.997H202.792V152.203C207.307 156.21 214.234 159.182 224.012 159.182C253.352 159.182 255.306 139.575 255.306 121.897C255.306 99.9074 251.849 84.3077 226.72 84.3077Z" fill="#232323"/>
<path fill-rule="evenodd" clip-rule="evenodd" d="M48.2577 123.435C26.3652 123.435 8.42929 106.764 6.72861 85.5815H0C1.75242 129.502 38.3488 164.581 83.2627 164.581C112.768 164.581 138.685 149.442 153.491 126.601C161.223 114.675 165.925 100.648 166.527 85.5815H89.7856C88.0849 106.764 70.149 123.435 48.2577 123.435V123.435Z" fill="#232323" fill-opacity="0.5"/>
<path fill-rule="evenodd" clip-rule="evenodd" d="M6.72861 78.9975C8.42929 57.8146 26.3652 41.1441 48.2577 41.1441C70.149 41.1441 88.0849 57.8146 89.7856 78.9975H166.527C164.772 35.0768 128.174 0 83.2627 0C38.3499 0 1.75361 35.0768 0 78.9975H6.72861Z" fill="#232323"/>
</g>
<defs>
<clipPath id="clip0_5_840">
<rect width="500" height="188.333" fill="white"/>
</clipPath>
</defs>
</svg>
