<svg width="500" height="180" viewBox="0 0 500 180" fill="none" xmlns="http://www.w3.org/2000/svg">
<path d="M184.167 157.583C183.583 157.583 182.75 157 181.917 155.667C181.333 154.583 181.333 153.417 181.667 152.333C182 151.25 183.333 147.083 183.917 145.417C184.167 144.583 184.167 144.333 184.167 144C184.167 143.417 184.417 142.917 184.75 142.333C185.583 140.417 188.083 136.5 189.167 136.5C189.417 136.5 189.75 136.5 189.75 136.75C190 137 190.333 137.833 189.75 139C187.833 142.333 185.583 147.917 184.5 151.5C183.917 153.75 184.5 154.25 185.333 154.25C188.417 154 194.75 147.833 198.417 143.667C199 143.083 199.25 143.083 199.25 143.667C199.25 143.917 199.25 144.5 198.667 145.333C196.167 149.25 190.083 154.5 187 156.167C185.583 157.333 184.75 157.583 184.167 157.583ZM191.417 126.167C192.5 126.167 193.333 126.75 193.083 127.833C192.833 129.25 192.5 130.917 192.833 132C192.833 132.833 192.25 132.833 191.75 132.583C190.917 132.333 190.333 131.5 190.333 130.667C190.083 130.083 190.083 129.25 190.083 128.417C189.75 126.75 190.583 126.167 191.417 126.167Z" fill="#232323"/>
<path d="M65.5834 136.5C66.4167 136.5 67.0001 137.333 67.2501 137.917C67.2501 138.167 67.5001 138.5 67.8334 138.5C68.9168 138.5 70.5834 138.75 71.4167 139.083C71.6667 139.083 72.0001 139.333 72.0001 139.333C72.0001 139.917 70.3334 140.417 70.0834 140.417L67.3334 140.667C67.0834 140.667 66.7501 140.917 66.5001 141.5C64.2501 146.5 59.8334 157.333 59.0001 160.917C59.0001 161.5 59.0001 161.75 59.2501 161.75C61.1667 161.75 62.8334 161.5 63.4167 161.5H65.0834C65.6667 161.75 65.6668 162.083 64.5001 162.583C62.5834 163.417 60.0834 164 58.4167 164.25C58.1667 164.25 57.5834 164.833 57.0001 165.083C56.7501 165.083 56.7501 165.083 56.4167 165.333C56.1667 165.333 55.8334 165.083 55.5834 164.75C55.3334 164.5 55.0001 164.5 54.7501 164.5C54.1667 164.5 53.3334 165.083 52.5001 165.083C52.2501 165.083 51.9167 165.083 51.4167 164.833C50.8334 164.25 50.8334 163.75 51.4167 163.167C52.2501 162.333 53.3334 162.083 55.0001 161.75C55.2501 161.75 55.2501 161.75 55.5834 161.167C56.4167 156.75 58.9167 150.333 62.2501 141.75C62.5001 141.167 62.2501 141.167 61.6668 141.167C60.8334 141.167 59.7501 141.417 59.1668 141.417C58.5834 141.667 58.3334 141.417 58.0834 141.167C57.8334 140.583 57.8334 140.083 58.3334 139.5C58.5834 139.25 59.1668 138.917 59.4168 138.917C60.2501 138.667 61.9168 138.667 62.7501 138.333C63.3334 138.333 63.3334 138.083 63.5834 138.083C64.1668 137.333 64.4167 136.75 65.5834 136.5ZM85.8334 142.583C86.6668 142.583 87.5001 143.667 86.9168 145.917C86.3334 147.333 83.5834 154.833 83.3334 155.917C83.3334 156.5 83.0834 157 83.3334 157C83.5834 157.25 83.9168 156.75 84.4168 156.167C88.3334 151.75 94.6668 144.25 95.5001 143.417C96.3334 142.583 96.9168 142.333 97.1668 142.333C98.0001 142.333 98.8334 143.417 98.8334 144.25C98.8334 144.833 98.5834 145.083 98.0001 145.667C97.7501 145.917 97.1668 146.5 96.9168 147.083C96.3334 148.5 95.2501 151.5 94.4168 155.167C93.8334 158.5 94.1668 160.167 96.0834 159.917C98.3334 159.667 101.667 156.833 106.917 149.917C107.5 149.333 107.75 149.333 108 149.667C108 149.917 108 150.75 107.417 151.583C102.667 159.333 98.0001 162.417 95.1667 162.667C92.9167 162.667 91.2501 160.75 91.8334 156.25C92.0834 154 92.6668 152.083 92.9168 150.417C92.9168 149.833 92.9168 149.583 92.3334 150.417C90.4168 152.917 84.5834 159.583 82.9168 161.5C81.8334 162.583 81.2501 163.167 80.6668 163.167C79.5834 163.167 79.5834 160.917 80.4168 157.917C80.6668 156.5 82.0834 151.833 82.6667 150.667C82.9167 149.833 82.9167 149.583 82.6667 149.25C82.4167 149.25 82.0834 149.5 81.5834 149.833C80.1668 150.917 73.0001 160.417 71.5834 162.333C70.7501 163.167 70.1667 164 69.6667 164C68.8334 164 68.0001 162.917 68.2501 160.083C68.5001 158.667 69.6667 154 71.0001 149.5C71.0001 148.917 71.0001 148.917 71.2501 148.417C71.2501 148.167 71.2501 147.333 71.5001 146.167C71.7501 144.75 72.3334 142.833 73.4167 142.583C73.6667 142.583 74.0001 142.583 74.5001 143.167C75.3334 144 75.5834 144.833 75.0834 146.25C74.0001 148.5 72.3334 154 71.7501 156.25C71.1667 157.667 71.7501 158.167 72.3334 157.333C75.0834 153.75 78.1668 149.833 81.2501 146.75C82.9168 145.083 83.7501 144.25 84.3334 143.417C84.7501 143.167 85.5834 142.583 85.8334 142.583ZM141.667 139.25C142.75 139.25 143.583 140.083 143.333 141.167C143.333 141.75 142.75 142.833 142.25 143.417C141.667 144 141.167 144 140.833 143.667C140.583 143.417 140 143.083 139.417 143.083C138.583 143.083 137.5 144.5 136.083 146.167C133 150.083 130.5 154.75 128.333 159.5C128.083 160.333 127.5 160.583 126.917 160.583C126.333 160.583 125.833 160.333 125.5 159.75C125.167 159.167 125.25 158.667 125.5 157.833C126.583 155.333 128 147.583 128.583 144.75C128.833 142.833 129.167 142 129.667 141.417C130.25 140.833 131.083 139.75 131.583 139.75C132.417 139.75 133 140.833 133 141.417C133 142 132.75 142.5 132.417 142.833C131.583 144.5 130.75 148.083 130.5 149.75C130.5 150.583 130.5 150.583 131.083 149.75C132.75 147.25 135.25 143.667 137.5 141.417C139.167 140.083 140.583 139.25 141.667 139.25ZM141.667 156.167C141.667 154.25 142.5 151.417 143.333 149.5C144.167 147.833 146.417 144.5 146.917 143.667C147.167 143.083 147.5 142.583 147.5 142C147.5 141.167 147.75 140.583 148.333 140.333C148.583 139.75 149.167 139.75 149.75 139.75C150.333 139.75 150.583 139.5 151.167 138.917C151.417 138.333 152.25 138.083 152.833 138.083C153.917 138.083 154.25 138.667 154.25 139.5C154.25 139.75 154.25 140.083 154.5 140.333C155.917 141.167 157.25 142.833 157.25 146.167C157.25 147.833 156.167 151.417 154.167 153.667C151.083 157.833 147.25 159.75 144.417 160.083C143.333 159.833 141.667 158.167 141.667 156.167ZM145 155.083C145 156.167 145.583 157 146.417 156.75C147.5 156.75 148.917 156.167 150 154.833C151.917 152.917 154.417 148.417 154.417 145.667C154.417 144 154.167 141.75 152.167 142.083C151.333 142.083 150.75 142.917 149.667 144.333C148.083 146.5 145 151.75 145 155.083ZM175.583 137.333C177 137.333 177.25 139 177.5 140.083C177.5 140.333 177.5 140.667 178.083 140.917C178.667 141.167 180.333 141.5 181.667 141.5C184.167 141.25 186.083 140.417 187.25 139.583C188.083 139 188.083 139.833 187.5 140.667C185.833 142.583 183.333 143.75 180.583 143.75H177.833C177.583 143.75 177.25 143.75 177.25 144.333C174.5 150.417 169.167 155.75 165.583 157.917C163.917 158.75 163.083 159 162.25 159C161.417 159 159.75 158.167 160.333 155.083C160.583 153.417 160.917 150.917 162.833 145.917C163.083 145.667 163.083 145.083 163.083 144.833C163.083 144.25 163.333 144 163.333 143.75C163.917 142.083 165 138.75 166.417 138.75C167.25 138.75 167.5 140.417 167.5 141.833C167.5 142.917 167.25 143.5 166.417 144.583C165.333 146.833 164.5 148.75 163.667 152.083C163.083 154.833 163.667 155.667 164.25 155.417C164.833 155.417 165.667 155.167 166.5 154.333C169.25 152.083 173.167 147.667 174.583 143.5C174.833 142.917 174.833 142.667 174.583 142.417C174 141.833 173.75 141 173.75 140.167C173.333 138.917 174.75 137.25 175.583 137.333ZM234.75 133.417C237.25 133.167 238.083 135.333 238.083 136.167C238.083 137 237.5 138.417 236.167 138.917C235.917 139.167 235.917 139.5 235.917 139.5V140.917C235.333 143.667 233.667 152 233.167 153.667C231.5 160.333 229 166.167 224.833 170.333C222.583 172.583 219 174.25 217.083 174.25H214.833C214.25 174.25 213.75 174 212.917 174C211.833 174 210.167 173.167 210.167 172.333C210.167 171.25 211.833 169.833 212.917 169.833C213.5 169.833 214.333 170.417 214.583 170.917C215.167 171.5 216 172 217.667 172C220.167 171.75 223.25 169.5 225.75 165.917C228.25 162.333 229.083 158.417 230.167 153.667C231.25 149.25 231.25 147.25 231.583 146.167C231.583 145.333 231.333 145.917 230.75 146.417C230.167 147.25 227.417 150.333 225.5 152.25C224.667 153.083 222.417 155 221.083 155C219.667 155 219.167 153.333 219.167 151.667C219.167 149.167 220.583 145.833 223.083 142.25C225.333 138.917 228.333 136.417 230.833 135C231.917 134.5 233.583 133.667 234.75 133.417ZM222.5 149.833C222.5 150.417 222.75 150.917 223.083 150.917C224.5 150.917 228.333 146.5 229.167 145.333C230.833 143.417 232.25 140.917 232.75 140.333C233.333 139.75 233.583 139.5 234.167 139.5C234.417 139.5 234.75 139.25 235 138.917C235.25 138.667 235.583 138.333 235.583 137.833C235.583 137 234.5 136.417 233.667 136.417C231.167 136.667 227.833 139.167 226.167 141.667C224.167 144 222.5 147.583 222.5 149.833ZM268.333 118.167C268.917 118.167 269.417 118.167 270 118.417C270.25 118.667 270.25 119.5 270 120.083C269.75 120.667 268.917 121.167 268.333 121.167C263.583 121.417 259.75 125.917 257.5 133.667C257.5 134.25 257.5 134.25 257.75 134.25C262.167 133.667 264.667 132.833 266.917 132C268.333 131.417 268 132.25 267.167 133.083C264.083 135 258 136.667 256.917 137C256.333 137.25 256.333 137.25 256.083 137.833C255.833 138.917 254.417 144.25 253.583 146.75C251.333 155.333 249.667 160.333 248 164.25C246.333 167.833 244.083 172.333 240.5 173.667C239.917 173.917 239.417 173.917 239.083 173.917C238.5 173.917 238.25 173.917 238 173.667C237.75 173.417 237.75 172.583 238.25 171.75C239.083 170.333 239.667 170.083 240.167 169.833C243.5 168.75 245.167 166.25 247.667 157.583C248.5 154.833 251.25 144 252.417 138.167C252.417 137.583 252.417 137.583 251.833 137.583C250.417 137.583 249.917 137 249.917 136.5C249.917 136.25 250.167 135.667 250.75 135.417C251.333 135.167 251.833 134.833 253 134.833C253.25 134.833 253.25 134.583 253.583 134.25C255.5 128.667 258 124.5 261.333 121.5C264.75 119.25 266.917 118.167 268.333 118.167ZM261.083 149C261.083 147.083 261.917 144.25 262.75 142.333C263.583 140.667 265.833 137.333 266.333 136.5C266.583 135.917 266.917 135.417 266.917 134.833C266.917 134 267.167 133.417 267.75 133.167C268 132.583 268.583 132.583 269.167 132.583C269.75 132.583 270 132.333 270.583 131.75C270.833 131.167 271.667 130.917 272.25 130.917C273.333 130.917 273.667 131.5 273.667 132.333C273.667 132.583 273.667 132.917 273.917 133.167C275.333 134 276.667 135.667 276.667 139C276.667 140.667 275.583 144.25 273.583 146.5C270.5 150.667 266.667 152.583 263.833 152.917C262.75 152.583 261.083 150.917 261.083 149ZM264.417 147.833C264.417 148.917 265 149.75 265.833 149.5C266.917 149.5 268.333 148.917 269.417 147.583C271.333 145.667 273.833 141.167 273.833 138.417C273.833 136.75 273.583 134.5 271.583 134.833C270.75 134.833 270.167 135.667 269.083 137.083C267.5 139.25 264.417 144.5 264.417 147.833ZM278.583 147.833C278.583 145.917 279.417 143.083 280.25 141.167C281.083 139.5 283.333 136.167 283.833 135.333C284.083 134.75 284.417 134.25 284.417 133.667C284.417 132.833 284.667 132.25 285.25 132C285.5 131.417 286.083 131.417 286.667 131.417C287.25 131.417 287.5 131.167 288.083 130.583C288.333 130 289.167 129.75 289.75 129.75C290.833 129.75 291.167 130.333 291.167 131.167C291.167 131.417 291.167 131.75 291.417 132C292.833 132.833 294.167 134.5 294.167 137.833C294.167 139.5 293.083 143.083 291.083 145.333C288 149.5 284.167 151.417 281.333 151.75C280.25 151.75 278.583 149.833 278.583 147.833ZM281.917 146.75C281.917 147.833 282.5 148.667 283.333 148.417C284.417 148.417 285.833 147.833 286.917 146.5C288.833 144.583 291.333 140.083 291.333 137.333C291.333 135.667 291.083 133.417 289.083 133.75C288.25 133.75 287.667 134.583 286.583 136C285 138.167 281.917 143.417 281.917 146.75ZM309.75 129.833C310.333 129.833 311.167 129.833 311.667 130.083C312.25 130.333 312.25 130.083 312.5 129.833C315 123.417 317.5 116.75 318.333 115.083C318.583 114.25 318.917 114 319.417 114C319.667 114 320 114 320.5 114.833C321.083 115.417 321.083 115.917 320.5 117.083C319.917 118.5 317.75 123.167 315.75 128.75C314.083 133.5 312.667 138.75 312.417 142.667C312.167 145.167 312.667 146.25 313.833 146.25C316.583 146 322.417 138.5 324.083 136C324.333 135.417 324.917 135.417 324.917 136C324.917 136.583 324.917 137.083 324.333 137.917C322.417 141.833 316.25 149 312.083 149.333C310.167 149.333 309.333 147.083 309.583 144.917C309.833 142.667 309.833 141.583 310.167 139.917C310.417 139.333 310.167 139.667 309.917 139.917C307.667 143 304.333 146.333 303.25 147.417C300.75 149.333 298.5 150.5 297.667 150.5C296.833 150.5 295.75 149.917 295.75 147.417C295.75 144.667 298 138.833 301.583 134.917C304.417 131.5 307.5 130.083 309.75 129.833ZM308.583 132.333C306.917 132.333 304.167 135.083 301.917 138.417C299.417 142.333 298.833 144.5 298.833 145.667C298.833 146.5 299.083 146.75 299.667 146.75C300.5 146.75 302.167 145.667 304.417 143.417C306.917 140.667 310 136.167 310.5 134.25C310.75 133.667 310.75 133.167 310.5 132.833C310.25 132.833 309.75 132.333 308.583 132.333ZM350.833 120.083C351.667 120.083 352.25 120.333 352.5 120.917C352.75 121.167 352.75 121.75 352.5 122.333C352.25 122.917 352.25 123.167 352.5 123.417C352.75 123.667 353.333 124.833 353.333 125.667C353.333 128.417 350.25 130.917 347.25 133.167C346.667 133.417 347 133.75 347 134C347.833 135.417 349.5 138.417 350.917 140.083C351.167 140.333 351.5 140.333 351.75 140.083C354.833 137.583 355.917 136.167 356.167 135.083C356.417 134.25 356.167 134 356.167 133.417C355.917 133.167 355.917 132.583 356.75 131.5C357.333 130.417 358.167 129.583 358.667 129.583C359.167 129.583 360.583 130.417 360.583 131.5C360.583 133.417 358.333 136.5 357.5 137.917C356.917 138.5 355 140.417 353.333 141.833C353.083 141.833 353.083 142.083 353.333 142.417C354.75 143.833 356.667 144.917 358.917 144.917C361.167 144.667 363.083 143.25 364.167 141C364.417 140.417 365.25 140.417 365.25 141C365.25 141.25 365.25 141.583 365 142.083C363.917 145.167 360.833 147.333 357.75 147.667C355 147.917 352.5 146.25 350.833 144.333C350.583 144.083 350.25 144.083 350 144.333C347.25 146.25 343.583 148.25 340.583 148.5C337.5 148.75 335 146.25 335 143.25C335 142.167 335.25 141 335.833 140.167C337.25 137.667 340.833 135.167 343.333 133.5C343.583 133.25 343.583 132.917 343.583 132.667C343.333 131.583 343 130.417 343 129.583C343 126.25 344.917 123.75 347.167 122.083C348.083 120.667 350 120.083 350.833 120.083ZM341.667 145.083C343.333 145.083 345.833 143.667 348.083 142C348.333 141.75 348.333 141.417 348.083 141.167C347 139.75 345 137 344.167 135.333C344.167 135.083 343.917 135.083 343.583 135.333C341.667 136.75 337.75 139.5 337.75 142.25C337.5 144 339.167 145.333 341.667 145.083ZM348.917 123.167C347.25 123.167 345.333 125.667 345.333 128.167C345.333 129 345.333 129.833 345.583 130.667C345.583 130.917 345.833 130.917 346.167 130.667C347.833 129.583 350.333 127.583 350.333 125.667C350.583 124.5 350.25 123.167 348.917 123.167ZM396.917 124.25C397.75 124.25 398.333 124.833 397.75 126.167C396.917 128.083 395 133.417 393.833 137.833C393 141.167 393.583 141.75 394.417 141.75C397.5 141.5 404.667 134 406.333 131.167C406.917 130.583 407.167 130.583 407.167 131.167C407.167 131.417 406.917 132.25 406.583 133.083C404.083 137.833 395.5 145 392.417 145.333C391 145.333 389.917 143.917 391 138.083C391.583 135 392.667 131.667 392.917 130.333C393.167 129.25 392.917 128.917 391.833 129.75C386.833 133.917 382.917 138.667 382.083 140.583C381.25 142 381 142.833 381 143.667C380.75 145.083 379.917 145.917 379.083 145.917C378.25 145.917 378 144.25 378.25 142.333C378.5 140.917 381 131.75 383 125.667C384.667 120.417 387.167 114.25 388.583 112.333C389.667 110.417 390.25 109.833 390.833 109.833C391.083 109.833 391.667 110.083 392.25 110.667C392.833 111.25 392.833 111.75 392.25 112.583C387.5 119.25 384.5 130.917 383.083 135.333C382.833 136.167 383.083 136.167 383.667 135.583C385.083 133.917 390.333 128.667 392.583 126.667C394.167 125.083 395.25 124.25 396.917 124.25ZM433.583 121.5C434.167 121.5 434.667 122.083 435 122.583C435 122.833 435.25 122.833 435.583 122.583C435.833 122.333 436.417 122.333 436.667 122.583C437.5 123.167 437.5 123.667 437.25 124.25C435.583 128.167 434.5 131.5 434.5 134.833C434.5 137.333 434.75 139.25 436.167 139.25C438.667 139 443.083 133.667 445.917 129.833C446.167 129.25 446.75 129.25 446.75 129.833C446.75 130.417 446.5 130.917 446.167 131.75C443.917 136.167 438.083 142.333 435.083 142.333C433.667 142.333 432 140.667 431.75 138.417C431.75 137.333 431.5 135.667 431.5 135.083C431.5 134.833 431.5 134.5 430.917 135.083C430.083 136.167 426.75 140.083 425.333 141.5C423.917 142.917 422.833 143.417 422 143.417C421.417 143.417 419.5 142.833 419.5 140.667C419.5 139.583 419.75 137.917 421.75 134.25C423.167 131.167 425.917 127.333 428.667 124.5C431.417 122 432.75 121.5 433.583 121.5ZM431.917 124.833C431.083 124.833 430 125.917 428.333 127.917C425.583 131.25 423.917 135.417 423.333 137.333C423.083 138.417 423.333 139.25 423.917 139.25C424.5 139.25 425.333 138.417 426.417 137.583C427.5 136.5 428.917 134.5 430.833 132C431.417 130.917 432.75 128.417 433.083 128.083C433.333 127.5 433.333 126.667 433.333 125.833C433.083 125.083 432.75 124.5 431.917 124.833ZM461.667 137.583C464.167 137.333 467.75 134.833 469.167 134C470 133.417 470.25 134.25 469.75 134.833C468.667 135.917 466.167 138.167 461.417 140.417C460.583 140.667 459.75 141 459.5 141C458.417 141 456.167 140.167 456.167 138.25C456.167 137.667 456.417 136.583 456.75 135.5C457.333 133.833 459.25 127.75 459.833 126.583C460.083 126 459.833 126 459.583 126C459 126 457.667 126.25 457.083 126.583C456.5 126.583 456.25 126.583 456 126.333C455.75 126.083 455.75 125.5 456 124.917C456.25 124.333 456.833 124.333 457.667 124.083C458.5 123.833 459.583 123.5 460.75 123.5C461.333 123.25 461.583 123.25 461.833 122.667C462.083 121.833 464.083 116.583 464.583 115.167C464.833 114.333 466 113.25 466.833 113.25C467.083 113.25 467.417 113.25 467.667 113.833C467.917 114.417 467.917 114.917 467.667 115.75C466 118.833 465.167 121.583 464.917 122.167C464.667 122.75 464.917 122.75 465.5 122.75C467.167 122.5 471.917 121.917 475.25 121.667C476.333 121.667 475.833 122.75 475 123.083C473.583 123.667 470.25 124.5 464.75 125.333C464.167 125.583 463.917 125.583 463.667 126.167C462.583 128.917 461.167 133.417 460.917 135.333C459.75 136.75 460.25 137.583 461.667 137.583Z" fill="#232323"/>
<path d="M119.167 141.167C120.833 141.167 121.667 143.917 121.667 145.083C121.667 148.667 119.417 152.583 118.583 153.667C118.333 154.25 118.333 154.25 118.833 153.917C121.333 152.833 126.917 148.917 129.417 146.167C130.25 145.083 130.5 146.417 129.667 147.833C126.917 151.417 120.25 156.167 116.583 157.583C115.167 158.167 114.667 158.667 113.5 159.5C112.333 160.333 108.75 162 107.667 162.25C106.833 162.5 106.583 162.5 106.25 162.25C106 162.25 105.667 162 105.417 161.667C105.167 161.417 104.833 161.667 104.833 162.25C104.583 162.5 100.667 173.917 100.417 175C100.167 175.833 100.167 176.083 100.667 176.417C101.25 176.417 102.583 176.667 104.833 176.417C105.667 176.417 106.25 176.417 106.25 176.667C106.25 176.917 105.667 177.5 104.583 177.75C103.167 178.333 99.3333 179.667 98.1667 179.667C97.5833 179.667 97.3333 179.667 96.75 179.083C96.5 178.5 96.5 178 96.75 176.833C97 175.667 101.167 164.583 104.5 151.833C105.583 147.417 105.917 146 106.417 144.583C106.667 143.167 107 142.333 107.5 141.5C108.083 140.417 109.167 139.833 110 139.833C110.583 139.833 111.083 140.083 111.417 140.417C111.667 141 111.667 141.25 111.167 141.5C109.75 142.583 109.25 144.583 108.083 148.167C107.833 149 108.333 149 108.667 148.417C110.333 146.5 113.083 143.417 115.917 142C118.333 141.167 118.917 141.167 119.167 141.167ZM116.917 144.833C116.667 144.833 115.833 145.083 113.833 146.75C109.667 150.667 107.417 154 106.333 157.833C106.083 158.667 106.333 159.25 107.167 159.25C107.75 159.25 109.917 158.417 111.583 157.583C113.25 156.75 114.083 155.917 114.917 154.833C116.333 152.917 118.5 149 118.5 146.5C118.333 145.333 118.333 144.5 116.917 144.833ZM202.5 134.833C203.583 134.833 204.167 136.25 204.167 137.083C204.167 137.333 203.917 137.667 203.583 137.667C203 137.917 202.5 138.25 202.167 139.333C201.333 141 200.25 144.917 199.667 147.083C199.667 147.667 199.917 147.917 200.25 147.333C202.167 144.583 206.917 139.833 208.583 138.417C210.25 137 210.833 136.75 211.333 136.5C211.583 136.25 212.167 135.917 212.417 135.417C212.667 134.833 213 134.583 213.5 134.583C214.083 134.583 214.333 134.833 214.583 135.167C215.167 135.75 215.167 136.583 214.583 137.417C214 138.25 213.5 139.083 212.917 140.5C211.833 142.75 210.667 145.75 210.167 148.25C209.083 152.417 210.167 154.083 211.833 153.833C214.583 153.583 219.917 147.167 222.917 143.25C223.167 142.667 223.5 142.667 223.75 143C224 143.25 223.75 143.833 223.167 144.917C217.917 153.25 213.75 156.333 210.667 156.583C208.167 156.833 206.25 153.833 207.583 148.25C208.167 145.75 209 143.5 209.25 142.167C209.5 141.083 209.5 140.75 209.5 140.75C209.25 140.5 208.917 140.75 208.083 141.583C202.833 146.333 199.5 151.583 198.083 154.333C197.833 155.167 197 156 196.417 156.25C196.167 156.25 195.583 156 195.333 155.667C195.083 155.417 195.083 154 195.333 153.167C197 145.417 198.917 139.583 200.083 137.333C201.083 135.083 201.667 134.75 202.5 134.833ZM403.333 138.417C403.333 135.917 404.75 132 406.917 128.667C408 127 411.333 122.583 413.333 122.583C414.167 122.583 414.417 123.167 414.75 123.417C414.75 123.667 415 123.667 415.333 124C416.75 124 417.833 124.833 417.833 126.5C417.833 128.167 417 130.083 415.917 131.5C414.25 133.417 412.333 135.083 409.5 135.083C408.917 135.083 408.417 134.833 407.833 134.5C407.583 134.25 407.583 134.25 407.25 134.75C407 135.333 407 136.417 407 137.25C407 139.5 408.083 140.583 409.75 140.583C413.917 140.333 420.583 135.333 423.917 131.167C424.167 130.917 424.5 130.917 424.75 131.167C424.75 131.417 424.75 132.25 424.167 133.083C420.583 138.083 413.583 143.083 408.583 143.333C406.083 144 403.333 142.833 403.333 138.417ZM409.167 132.833C411.917 132.583 414.75 130.333 414.75 128.083C414.75 126.667 413.917 126.167 413.083 126.167C411.667 126.167 408.917 130.333 408.333 132.583C408.083 132.583 408.333 132.833 409.167 132.833ZM443.083 137.833C443.083 136.75 443.917 131.167 447.5 122C451.667 111.417 453.583 107.583 454.417 106.75C454.667 106.5 455 106.167 455.25 106.167C455.5 106.167 455.833 106.167 456.083 106.417C457.167 107.5 456.667 108.667 456.083 110C451.083 119.75 447.75 129.167 446.667 133.333C445.583 137.25 446.417 137.75 446.917 137.75C448.833 137.75 455.5 131.917 459.417 127.167C459.667 126.583 460 126.917 460 127.417C460 127.917 459.75 128.5 459.417 129.333C456.917 132.917 448.833 140.75 445 141C443.917 141.417 443.083 140.083 443.083 137.833ZM489.75 118.417C490.583 118.417 491.167 119 490.583 120.333C489.75 122.25 487.833 127.583 486.667 132C485.833 135.333 486.417 135.917 487.25 135.917C490.333 135.667 497.5 128.167 499.167 125.333C499.75 124.75 500 124.75 500 125.333C500 125.583 499.75 126.417 499.417 127.25C496.917 132 488.333 139.167 485.25 139.5C483.833 139.5 482.75 138.083 483.833 132.25C484.417 129.167 485.5 125.833 485.75 124.5C486 123.417 485.75 123.083 484.667 123.917C479.667 128.083 475.75 132.833 474.667 134.75C473.833 136.167 473.583 137 473.583 137.833C473.333 139.25 472.5 140.083 471.667 140.083C470.833 140.083 470.583 138.417 470.833 136.5C471.083 135.083 473.583 125.917 475.583 119.833C477.25 114.583 479.75 108.417 481.167 106.5C482.25 104.583 482.833 104 483.417 104C483.667 104 484.25 104.25 484.833 104.833C485.417 105.417 485.417 105.917 484.833 106.75C480.083 113.417 477.083 125.083 475.667 129.5C475.417 130.333 475.667 130.333 476.25 129.75C477.667 128.083 482.917 122.833 485.167 120.833C486.667 119.5 487.75 118.667 489.75 118.417Z" fill="#232323"/>
<path d="M0 0.666748H366.667V78.4167H0V0.666748Z" fill="#232323"/>
<path d="M161.083 78.4168L134.417 50.6667L108.333 78.4168H161.083Z" fill="#FFFFFE"/>
<path d="M108.333 78.4167L135 106.167L161.083 78.4167H108.333Z" fill="#232323" fill-opacity="0.75"/>
<path d="M47.2499 49.2501C41.1666 49.2501 36.6666 45.6668 36.6666 39.2501C36.6666 33.4168 40.5833 29.0001 46.6666 29.0001C49.4166 29.0001 52.2499 29.8334 54.9999 31.2501L55.5832 24.3334C52.4999 23.5001 49.4999 22.6667 46.1666 22.6667C35.5833 22.6667 28.0833 28.2501 28.0833 39.0834C28.0833 51.0001 37.8333 55.1668 46.1666 55.1668C50.5833 55.1668 53.0832 54.5834 55.5832 53.7501L55.3333 47.0834C52.7499 48.4167 49.9999 49.2501 47.2499 49.2501ZM77.7499 35.3334H67.9999V23.4168H59.4166V54.8334H67.9999V41.5001H77.7499V54.8334H86.3333V23.4168H77.7499V35.3334ZM111.083 39.5001C115.25 38.4167 117.167 35.5834 117.167 31.4167C117.167 26.1667 112.75 23.3334 106.917 23.3334H91.9166V54.7501H100.25V42.2501H101.917C105 42.2501 106.083 43.6668 107.75 48.9168L109.667 54.5001H118.583L115.5 45.9168C114.167 42.5834 113.917 40.0834 111.083 39.5001ZM102.75 36.5001H100.5V29.2501H102.75C106.083 29.2501 108.833 29.8334 108.833 32.8334C108.917 36.5001 105.25 36.5001 102.75 36.5001ZM168.583 35.3334H158.583V23.4168H150.25V54.8334H158.583V41.5001H168.583V54.8334H176.917V23.4168H168.583V35.3334ZM192.5 23.4168L180.583 54.8334H188.917L191.417 48.1667H203.333L205.583 54.8334H214.75L202.833 23.4168H192.5V23.4168ZM193.333 42.3334L197.5 30.0834L201.417 42.3334H193.333ZM240 44.8334H239.75L229.167 23.4168H218.333V54.8334H226.083L225.833 33.4168L236.917 54.8334H247.5V23.4168H239.75L240 44.8334ZM261.083 32.0001C261.083 29.2501 264.667 28.9167 266.667 28.9167C269.167 28.9167 271.417 29.5001 273.583 30.3334L274.167 23.9167C271.917 23.0834 269.167 22.8334 266.083 22.8334C259.667 22.8334 252.167 24.7501 252.167 32.5834C252.167 44.0001 267.167 40.3334 267.167 46.1667C267.167 48.6667 264.667 49.2501 261.917 49.2501C258.333 49.2501 255.25 48.4167 253.333 47.3334L252.5 54.2501C255.25 55.0834 258.917 55.6667 261.917 55.6667C268.833 55.6667 275.833 53.4168 275.833 45.4168C276.083 33.6668 261.083 37.0001 261.083 32.0001ZM289.417 41.7501H302.5V35.9168H289.417V29.5001H303.333V23.4168H280.833V54.8334H303.917V49.0001H289.5L289.417 41.7501ZM330.583 23.4168V44.8334L319.75 23.4168H308.917V54.8334H316.667L316.417 33.4168H316.667L327.75 54.8334H338V23.4168H330.583V23.4168Z" fill="#FFFFFE"/>
</svg>
