<svg width="500" height="129" viewBox="0 0 500 129" fill="none" xmlns="http://www.w3.org/2000/svg">
<g clip-path="url(#clip0_4_674)">
<path d="M57.3447 19.7216V14.2211C57.3447 6.10049 62.4051 0 72.2659 0C80.5666 0 85.847 5.32043 86.4071 11.4409H82.5667C81.9467 6.96056 78.5664 3.08025 72.2259 3.08025C64.8853 3.08025 61.365 7.74062 61.365 14.1211V19.8816C61.365 26.2421 64.8853 30.9025 72.2259 30.9025C78.6664 30.9025 81.9467 27.0222 82.5667 22.5418H86.4071C85.847 28.6623 80.5666 33.9427 72.2659 33.9427C62.4051 34.0027 57.3447 27.8422 57.3447 19.7216Z" fill="#232323"/>
<path d="M112.329 34.0027C102.328 34.0027 97.2278 27.5222 97.2278 19.6816V14.3611C97.2278 6.52052 102.248 0 112.329 0C122.41 0 127.39 6.52052 127.39 14.3611V19.6216C127.39 27.4622 122.37 34.0027 112.329 34.0027ZM123.39 19.8016V14.2011C123.39 8.00064 120.01 3.08025 112.329 3.08025C104.648 3.08025 101.228 8.00064 101.228 14.2011V19.8016C101.228 25.9221 104.668 30.9025 112.329 30.9025C119.99 30.9025 123.39 26.0021 123.39 19.8016Z" fill="#232323"/>
<path d="M140.111 0.680054H154.112C161.593 0.680054 166.233 5.14041 166.233 10.9609C166.233 16.7813 161.593 21.4417 154.112 21.4417H144.112V33.3027H140.111V0.680054ZM153.812 18.4215C159.713 18.4215 162.353 14.9612 162.353 10.9609C162.353 6.96056 159.713 3.68029 153.812 3.68029H144.112V18.4215H153.812Z" fill="#232323"/>
<path d="M176.974 0.680054H200.696V3.68029H180.954V15.2412H199.176V18.3215H180.954V30.3224H200.696V33.3227H176.974V0.680054Z" fill="#232323"/>
<path d="M213.097 0.680054H216.777L236.559 27.4622V0.680054H240.559V33.3027H236.759L216.937 6.52052V33.3027H213.097V0.680054Z" fill="#232323"/>
<path d="M255.18 0.680054H259.181V15.3212H278.122V0.680054H282.123V33.3027H278.122V18.5815H259.181V33.3027H255.18V0.680054Z" fill="#232323"/>
<path d="M323.326 33.3027H319.325L316.025 24.982H299.424L296.144 33.3027H292.143L305.844 0.680054H309.845L323.326 33.3027ZM300.664 22.1218H314.985L307.745 4.00032L300.664 22.1218Z" fill="#232323"/>
<path d="M356.428 11.3809C356.288 6.80054 352.568 3.08025 346.168 3.08025C338.807 3.08025 335.387 7.64061 335.387 14.2011V19.6216C335.387 26.0021 338.587 30.9825 346.368 30.9825C352.788 30.9825 356.709 27.7222 356.709 21.4217V20.5616H346.708V17.5614H360.609V21.0017C360.609 28.4823 355.488 33.9427 346.368 33.9427C336.367 33.9427 331.406 27.4622 331.406 19.5216V14.3611C331.406 6.00048 336.527 0 346.028 0C354.808 0 360.029 4.9804 360.229 11.3809H356.428Z" fill="#232323"/>
<path d="M372.85 0.680054H396.492V3.68029H376.85V15.2412H395.032V18.3215H376.85V30.3224H396.532V33.3227H372.85V0.680054Z" fill="#232323"/>
<path d="M407.893 0.680054H411.653L431.435 27.4622V0.680054H435.255V33.3027H431.555L411.793 6.52052V33.3027H407.893V0.680054Z" fill="#232323"/>
<path d="M53.5043 125.47C47.1358 127.511 40.4903 128.557 33.8027 128.57C23.4819 128.57 15.6213 125.63 9.02074 119.31C6.10811 116.413 3.80837 112.96 2.25858 109.156C0.708795 105.352 -0.059318 101.275 1.96746e-05 97.1678C1.96746e-05 78.9064 13.8411 66.5054 34.0027 66.5054C40.5994 66.514 47.1559 67.5325 53.4443 69.5256V83.3067H48.0039L46.5437 75.1861L45.2636 73.5659C41.7726 72.0075 37.9856 71.2228 34.1628 71.2658C19.2616 71.2658 10.1608 81.1465 10.1608 97.2678C10.1608 113.769 19.8016 123.87 35.7629 123.87C38.6754 123.957 41.5822 123.558 44.3636 122.69L45.9037 121.27L48.2639 111.369H53.5443L53.5043 125.47Z" fill="#232323"/>
<path d="M100.848 66.8654L124.41 122.87L130.41 123.93V127.57H108.009V123.85L114.009 123.41L114.709 122.15L107.609 105.088H84.5268L77.5663 122.15L78.5863 123.41L84.9668 123.85V127.49H65.6853V123.85L71.3658 122.79L94.3476 66.7854L100.848 66.8654ZM86.2069 100.868H106.009L96.0077 76.2462L86.2069 100.868Z" fill="#232323"/>
<path d="M141.111 123.85L146.692 123.41L148.372 122.15V72.9859L146.692 71.6858L140.311 71.2658V67.6055H162.693C181.755 67.6055 190.015 72.8859 190.015 84.8468C190.015 97.6079 180.694 105.028 164.693 105.028C162.18 105.019 159.67 104.873 157.173 104.588V122.15L158.853 123.41L165.793 123.85V127.49H141.111V123.85ZM157.113 100.288C160.853 100.628 162.353 100.708 164.113 100.708C174.674 100.708 180.815 95.2677 180.815 85.6469C180.815 76.0261 174.814 71.6458 162.813 71.6458C161.433 71.6458 160.813 71.6458 157.133 71.8258L157.113 100.288Z" fill="#232323"/>
<path d="M230.158 66.8654L253.66 122.87L259.521 123.93V127.57H237.299V123.85L243.44 123.41L244.12 122.15L237.039 105.088H213.837L206.897 122.15L207.837 123.41L214.297 123.85V127.49H195.016V123.85L200.696 122.79L223.658 66.7854L230.158 66.8654ZM215.517 100.868H235.379L225.218 76.2462L215.517 100.868Z" fill="#232323"/>
<path d="M320.566 125.47C314.135 127.511 307.431 128.556 300.684 128.57C290.443 128.57 282.683 125.63 276.042 119.31C273.083 116.443 270.746 112.998 269.177 109.188C267.608 105.379 266.84 101.287 266.921 97.1678C266.921 78.9064 280.923 66.5054 301.024 66.5054C307.653 66.5209 314.241 67.5392 320.566 69.5256V83.3067H314.985L313.485 75.1861L312.225 73.5659C308.744 72.0203 304.973 71.236 301.164 71.2658C286.223 71.2658 277.162 81.1465 277.162 97.2678C277.162 113.769 286.823 123.87 302.824 123.87C305.691 123.953 308.551 123.554 311.285 122.69L312.885 121.27L315.285 111.369H320.646L320.566 125.47Z" fill="#232323"/>
<path d="M337.087 123.85L343.407 123.41L344.988 122.15V72.9859L343.407 71.6858L337.087 71.2658V67.6055H362.029V71.2658L355.728 71.6858L354.088 72.9859V122.15L355.728 123.41L362.029 123.85V127.49H337.087V123.85Z" fill="#232323"/>
<path d="M430.875 67.6055V81.3266H425.454L424.034 73.0659L422.654 71.6858H407.633V122.15L409.353 123.41L415.893 123.85V127.49H390.291V123.85L396.852 123.41L398.552 122.15V71.6858H383.571L382.191 73.0659L380.811 81.3266H375.39V67.6055H430.875Z" fill="#232323"/>
<path d="M462.037 67.6055V71.2658L456.377 71.6858L455.417 72.7059L470.478 97.2478L486.919 73.4059L486.059 72.1458L480.059 71.2658V67.6055H500.06V71.2658L494.06 72.3258L473.598 102.008V122.01L475.198 123.27L481.819 123.71V127.35H456.417V123.85L463.077 123.41L464.697 122.15V103.208L445.116 72.0058L439.115 71.2058V67.6055H462.037Z" fill="#232323"/>
</g>
<defs>
<clipPath id="clip0_4_674">
<rect width="500" height="128.57" fill="white"/>
</clipPath>
</defs>
</svg>
