<svg width="500" height="186" viewBox="0 0 500 186" fill="none" xmlns="http://www.w3.org/2000/svg">
<path d="M170.543 6.99459C162.614 -1.0014 149.763 -1.0014 141.834 6.99459L111.136 37.9238C105.9 43.0743 103.814 50.6678 105.674 57.8034C107.534 64.9389 113.052 70.5139 120.122 72.3984C127.191 74.2828 134.718 72.1856 139.828 66.908L170.526 35.9787C178.437 27.9772 178.445 15.0262 170.543 7.01521" fill="#232323" fill-opacity="0.75"/>
<path d="M170.523 142.719L139.825 111.79C131.891 103.795 119.037 103.803 111.113 111.809C103.19 119.814 103.199 132.786 111.132 140.781L141.837 171.71C146.956 176.942 154.461 179.004 161.502 177.114C168.542 175.223 174.039 169.669 175.903 162.562C177.768 155.455 175.714 147.884 170.523 142.726" fill="#232323" fill-opacity="0.5"/>
<path d="M109.096 89.3351V89.2664C109.1 83.8523 106.969 78.6589 103.173 74.8327L35.9735 6.98428C28.0607 -1.01093 15.2231 -1.01939 7.29989 6.96538C-0.623288 14.9502 -0.631675 27.9045 7.28116 35.8997L60.1807 89.3351L7.28116 142.764C-0.633556 150.759 -0.626694 163.715 7.29649 171.701C15.2197 179.688 28.0588 179.681 35.9735 171.686L103.166 103.81C106.968 99.9986 109.1 94.8113 109.089 89.4039C109.092 89.3811 109.092 89.3579 109.089 89.3351" fill="#232323"/>
<path d="M303.114 158.338C304.421 158.308 305.718 158.585 306.901 159.146C307.948 159.659 308.866 160.404 309.588 161.325C310.317 162.267 310.864 163.34 311.199 164.486C311.568 165.72 311.753 167.002 311.747 168.291C311.754 169.578 311.577 170.859 311.223 172.095C310.899 173.234 310.356 174.298 309.626 175.226C308.901 176.127 307.982 176.849 306.938 177.336C305.761 177.866 304.482 178.128 303.192 178.102C302.677 178.097 302.163 178.048 301.656 177.954C301.073 177.855 300.503 177.694 299.954 177.473C299.39 177.253 298.861 176.953 298.38 176.583C297.875 176.199 297.45 175.719 297.127 175.171H297.052V184.907H293.97V158.788L297.069 158.782V161.338H297.144C297.632 160.306 298.481 159.492 299.528 159.053C300.66 158.564 301.882 158.321 303.114 158.338ZM480.646 158.338C481.953 158.308 483.249 158.585 484.433 159.146C485.48 159.658 486.399 160.403 487.12 161.325C487.85 162.267 488.398 163.339 488.734 164.486C489.102 165.72 489.286 167.002 489.279 168.291C489.285 169.577 489.109 170.858 488.758 172.095C488.433 173.234 487.889 174.298 487.157 175.226C486.434 176.128 485.514 176.85 484.47 177.336C483.293 177.866 482.013 178.128 480.724 178.102C480.209 178.097 479.695 178.048 479.188 177.954C478.605 177.855 478.035 177.693 477.485 177.473C476.922 177.253 476.392 176.953 475.912 176.583C475.408 176.198 474.982 175.719 474.659 175.171H474.584V184.907H471.519V158.788L474.594 158.782V161.338H474.669C475.159 160.308 476.007 159.494 477.053 159.053C478.188 158.565 479.412 158.321 480.646 158.338ZM404.639 150.929C405.978 150.919 407.313 151.086 408.61 151.424C409.807 151.728 410.937 152.253 411.944 152.974C412.938 153.696 413.776 154.614 414.41 155.672C415.121 156.875 415.584 158.211 415.772 159.6H412.332C412.194 158.683 411.872 157.805 411.386 157.019C410.943 156.317 410.364 155.714 409.683 155.245C408.975 154.777 408.196 154.428 407.377 154.214C406.488 153.981 405.572 153.865 404.653 153.871C401.944 153.766 399.373 155.072 397.841 157.328C397.112 158.407 396.579 159.61 396.268 160.878C395.93 162.212 395.759 163.584 395.761 164.961C395.757 166.292 395.951 167.616 396.336 168.889C396.698 170.095 397.275 171.225 398.039 172.222C398.786 173.186 399.732 173.974 400.811 174.531C402.001 175.124 403.315 175.419 404.642 175.391C405.87 175.412 407.09 175.189 408.232 174.734C409.225 174.321 410.122 173.703 410.864 172.92C411.584 172.139 412.134 171.216 412.479 170.208C412.845 169.133 413.003 167.997 412.945 166.861H404.673V163.936H416.027V177.683H413.851L412.945 174.428C411.989 175.749 410.682 176.77 409.175 177.374H409.172C407.731 177.961 406.193 178.266 404.639 178.274C402.851 178.303 401.078 177.933 399.449 177.188C397.969 176.503 396.647 175.513 395.57 174.281C394.501 173.049 393.677 171.621 393.145 170.074C392.585 168.487 392.302 166.814 392.307 165.129C392.297 163.289 392.561 161.457 393.091 159.696C393.567 158.052 394.355 156.518 395.41 155.177C396.45 153.875 397.76 152.819 399.248 152.084C400.932 151.281 402.777 150.886 404.639 150.929ZM262.604 158.349C263.449 158.35 264.294 158.409 265.131 158.527C265.925 158.636 266.693 158.891 267.396 159.28C268.069 159.653 268.632 160.201 269.024 160.868C269.469 161.682 269.682 162.605 269.64 163.534V173.25C269.623 173.79 269.667 174.331 269.769 174.861C269.855 175.205 270.137 175.373 270.621 175.373C270.941 175.362 271.259 175.313 271.568 175.226L271.578 177.621C270.895 177.975 270.131 178.141 269.364 178.102C268.664 178.14 267.978 177.892 267.46 177.415C266.932 176.81 266.676 176.011 266.756 175.208C265.968 176.183 264.95 176.942 263.796 177.415C262.636 177.881 261.397 178.114 260.149 178.102C259.336 178.106 258.526 178.006 257.737 177.807C257.026 177.638 256.355 177.327 255.766 176.892C255.198 176.468 254.741 175.91 254.434 175.267C253.771 173.64 253.79 171.81 254.488 170.198C254.834 169.538 255.326 168.968 255.926 168.531C256.545 168.09 257.237 167.762 257.969 167.562C258.728 167.346 259.505 167.16 260.302 167.012C261.099 166.864 261.954 166.717 262.713 166.624C263.392 166.556 264.065 166.434 264.726 166.26C265.234 166.143 265.707 165.908 266.108 165.572C266.465 165.226 266.651 164.737 266.616 164.239C266.641 163.666 266.508 163.097 266.231 162.596C265.996 162.197 265.66 161.868 265.257 161.644C264.833 161.416 264.371 161.266 263.895 161.201C263.408 161.132 262.918 161.096 262.427 161.094C261.293 161.052 260.168 161.311 259.164 161.844C258.222 162.465 257.683 163.549 257.751 164.682H254.662C254.675 163.649 254.926 162.632 255.394 161.713C255.806 160.93 256.401 160.26 257.128 159.761C257.883 159.245 258.728 158.877 259.617 158.675C260.597 158.453 261.599 158.343 262.604 158.349ZM454.974 158.782V171.583C454.924 172.613 455.293 173.618 455.996 174.367C456.75 175.08 457.76 175.452 458.792 175.398C459.628 175.417 460.46 175.27 461.24 174.964C461.896 174.687 462.479 174.26 462.943 173.717C463.413 173.167 463.767 172.527 463.982 171.834C464.213 171.068 464.328 170.27 464.323 169.469V158.782H467.411V177.683L464.513 177.697V174.7H464.445C463.873 175.784 463.004 176.68 461.942 177.281C460.828 177.848 459.593 178.13 458.346 178.102C457.302 178.132 456.262 177.963 455.281 177.604C454.507 177.313 453.821 176.828 453.285 176.195C452.766 175.562 452.399 174.816 452.216 174.016C452.001 173.1 451.898 172.16 451.909 171.219V158.782H454.974ZM443.535 159.105C444.622 159.59 445.592 160.308 446.378 161.208C447.168 162.126 447.761 163.199 448.122 164.359C448.515 165.621 448.712 166.937 448.704 168.26C448.712 169.574 448.516 170.88 448.122 172.133C447.761 173.286 447.167 174.352 446.378 175.263C445.598 176.165 444.626 176.878 443.535 177.349C441.01 178.353 438.202 178.353 435.678 177.349C434.58 176.88 433.601 176.167 432.814 175.263C432.028 174.352 431.438 173.286 431.08 172.133C430.682 170.882 430.485 169.574 430.498 168.26C430.487 166.936 430.684 165.62 431.084 164.359H431.08C431.437 163.2 432.027 162.127 432.814 161.208C433.607 160.307 434.584 159.589 435.678 159.105C438.199 158.083 441.014 158.083 443.535 159.105ZM327.229 159.105C328.315 159.59 329.284 160.308 330.069 161.208C330.859 162.126 331.453 163.199 331.813 164.359C332.209 165.621 332.407 166.937 332.399 168.26C332.407 169.574 332.21 170.881 331.813 172.133C331.452 173.286 330.858 174.352 330.069 175.263C329.29 176.165 328.319 176.878 327.229 177.349C324.705 178.353 321.897 178.353 319.372 177.349C318.274 176.881 317.295 176.168 316.508 175.263C315.722 174.352 315.13 173.286 314.771 172.133C314.373 170.882 314.176 169.574 314.189 168.26C314.177 166.937 314.373 165.62 314.771 164.359C315.13 163.199 315.721 162.127 316.508 161.208C317.3 160.305 318.278 159.587 319.372 159.105C321.893 158.083 324.708 158.083 327.229 159.105ZM373.464 159.373C374.538 160.038 375.445 160.945 376.113 162.022C376.783 163.101 377.251 164.293 377.496 165.541C377.742 166.731 377.845 167.946 377.803 169.16H363.765C363.737 169.959 363.836 170.757 364.058 171.524C364.263 172.251 364.621 172.925 365.107 173.501C365.614 174.093 366.247 174.563 366.959 174.875C367.796 175.236 368.699 175.411 369.609 175.387C370.746 175.438 371.868 175.118 372.81 174.473C373.693 173.794 374.285 172.799 374.462 171.693H377.527C377.252 173.586 376.279 175.304 374.802 176.504L374.792 176.494C373.25 177.605 371.386 178.168 369.493 178.095C368.159 178.128 366.834 177.88 365.6 177.367C364.532 176.906 363.581 176.207 362.818 175.322C362.051 174.397 361.48 173.323 361.139 172.167C360.748 170.875 360.533 169.535 360.499 168.184C360.486 166.838 360.707 165.501 361.153 164.232C361.562 163.084 362.185 162.026 362.988 161.115C363.766 160.245 364.717 159.548 365.777 159.07C366.892 158.575 368.098 158.326 369.316 158.342C370.768 158.281 372.206 158.638 373.464 159.373ZM283.412 158.342C284.457 158.313 285.498 158.486 286.477 158.854C287.248 159.162 287.934 159.654 288.477 160.287C288.995 160.92 289.36 161.666 289.543 162.466C289.757 163.382 289.86 164.321 289.849 165.263V177.703H286.784V164.892C286.837 163.862 286.468 162.855 285.762 162.108C285.009 161.395 284.001 161.023 282.97 161.077C282.132 161.054 281.298 161.202 280.518 161.51C279.862 161.788 279.28 162.215 278.815 162.758C278.351 163.309 278.003 163.95 277.793 164.641C277.561 165.405 277.446 166.2 277.453 166.998V177.686H274.367V158.785L277.245 158.778V161.778H277.316C278.513 159.534 280.891 158.194 283.412 158.342ZM430.028 158.328V161.624C428.953 161.595 427.883 161.769 426.871 162.136C426.052 162.443 425.327 162.961 424.766 163.638C424.21 164.344 423.813 165.165 423.605 166.043C423.348 167.102 423.227 168.19 423.244 169.28V177.7H420.158V158.799L423.06 158.778V162.768H423.138C423.74 161.406 424.688 160.23 425.887 159.359C427.127 158.589 428.575 158.229 430.028 158.328ZM229.215 151.568L237.379 173.525L245.573 151.568H250.289V177.7H247.027V155.964H246.948L238.863 177.7H235.928L227.839 155.964H227.765V177.7H224.499V151.568H229.215ZM390.751 158.328V161.624C389.676 161.595 388.606 161.769 387.594 162.136C386.774 162.441 386.048 162.959 385.489 163.638C384.932 164.344 384.537 165.165 384.331 166.043C384.073 167.102 383.952 168.19 383.97 169.28V177.7H380.881V158.799L383.783 158.778V162.768H383.861C384.462 161.406 385.411 160.23 386.61 159.359C387.85 158.59 389.298 158.229 390.751 158.328ZM336.819 158.782L341.066 174.257H341.134L344.904 158.782H348.276L352.196 174.257H352.271L356.48 158.782H359.668L353.684 177.697H350.421L346.611 162.655H346.542L342.762 177.697H339.432L333.41 158.782H336.819ZM321.024 161.555C320.309 161.877 319.672 162.353 319.158 162.95C318.597 163.608 318.171 164.372 317.905 165.198C317.301 167.19 317.301 169.319 317.905 171.311C318.167 172.134 318.594 172.894 319.158 173.545C319.675 174.133 320.312 174.601 321.024 174.92C323.228 175.908 325.812 175.354 327.427 173.545C327.988 172.893 328.415 172.133 328.68 171.311C329.284 169.319 329.284 167.19 328.68 165.198C328.411 164.374 327.985 163.61 327.427 162.95C326.909 162.354 326.27 161.878 325.554 161.555C324.109 160.922 322.469 160.922 321.024 161.555ZM437.333 161.555C436.619 161.879 435.982 162.355 435.467 162.95C434.908 163.61 434.484 164.373 434.217 165.198C433.613 167.19 433.613 169.319 434.217 171.311C434.48 172.134 434.905 172.893 435.467 173.545C435.985 174.131 436.622 174.6 437.333 174.92C439.538 175.909 442.123 175.354 443.739 173.545C444.299 172.892 444.725 172.132 444.992 171.311C445.596 169.319 445.596 167.19 444.992 165.198C444.722 164.374 444.296 163.611 443.739 162.95C443.221 162.355 442.582 161.88 441.866 161.555C440.42 160.923 438.779 160.923 437.333 161.555ZM302.688 161.084C301.77 161.057 300.861 161.27 300.049 161.703C299.34 162.103 298.73 162.66 298.264 163.332C297.796 164.026 297.458 164.8 297.266 165.617C297.061 166.47 296.958 167.344 296.96 168.222C296.961 169.129 297.075 170.032 297.301 170.909C297.494 171.73 297.841 172.505 298.322 173.195C298.805 173.86 299.433 174.404 300.158 174.786C301.002 175.212 301.939 175.42 302.882 175.391C303.81 175.425 304.73 175.211 305.549 174.769C306.243 174.372 306.828 173.807 307.252 173.126C307.704 172.407 308.023 171.612 308.195 170.779C308.391 169.891 308.489 168.984 308.488 168.074C308.489 167.202 308.375 166.334 308.147 165.493H308.151C307.934 164.687 307.578 163.926 307.099 163.246C306.626 162.584 306.006 162.044 305.287 161.672C304.482 161.263 303.589 161.061 302.688 161.084ZM475.789 163.332C475.319 164.025 474.979 164.799 474.788 165.617C474.588 166.471 474.485 167.345 474.482 168.222C474.482 169.129 474.597 170.032 474.822 170.909C475.015 171.73 475.362 172.505 475.844 173.195C476.327 173.86 476.955 174.404 477.679 174.786C478.524 175.212 479.46 175.42 480.404 175.391C481.331 175.425 482.25 175.211 483.067 174.769C483.761 174.372 484.346 173.807 484.77 173.126C485.222 172.407 485.542 171.612 485.717 170.779C485.91 169.89 486.007 168.984 486.006 168.074C486.009 167.202 485.894 166.334 485.666 165.493H485.676C485.461 164.687 485.104 163.925 484.623 163.246C484.151 162.584 483.53 162.044 482.812 161.672C482.008 161.263 481.116 161.061 480.217 161.084C478.455 161.008 476.779 161.859 475.789 163.332ZM266.572 167.926C266.118 168.25 265.597 168.468 265.049 168.562C264.418 168.7 263.757 168.814 263.067 168.906C262.386 168.992 261.685 169.084 260.986 169.191C260.337 169.287 259.702 169.465 259.096 169.72C258.565 169.946 258.097 170.3 257.734 170.751C257.363 171.287 257.179 171.933 257.213 172.586C257.196 173.038 257.302 173.486 257.519 173.882C257.715 174.228 257.989 174.523 258.32 174.741C258.667 174.966 259.051 175.126 259.454 175.215C259.908 175.313 260.372 175.362 260.837 175.363C261.725 175.383 262.61 175.241 263.449 174.944C264.101 174.706 264.703 174.346 265.223 173.882C265.652 173.498 266 173.03 266.245 172.507C266.453 172.069 266.569 171.591 266.585 171.105L266.572 167.926ZM369.142 161.084C368.402 161.073 367.667 161.216 366.983 161.503C366.362 161.772 365.801 162.165 365.335 162.658C364.873 163.152 364.506 163.727 364.252 164.356C363.984 165.013 363.823 165.709 363.775 166.418H374.55C374.501 165.701 374.334 164.997 374.056 164.335V164.352C373.796 163.712 373.415 163.129 372.936 162.634C372.454 162.155 371.886 161.772 371.264 161.503C370.593 161.218 369.87 161.075 369.142 161.084ZM346.147 74.6575C348.558 75.8366 350.672 77.5535 352.329 79.6783C354.012 81.8559 355.276 84.333 356.054 86.9811C356.904 89.8248 357.327 92.7811 357.308 95.7512C357.324 98.7166 356.918 101.669 356.102 104.518C355.354 107.144 354.101 109.597 352.414 111.735C350.745 113.808 348.628 115.468 346.226 116.587C343.505 117.815 340.548 118.418 337.569 118.354C336.378 118.339 335.191 118.224 334.02 118.01C332.689 117.779 331.384 117.41 330.127 116.91C328.828 116.395 327.605 115.701 326.494 114.848C325.335 113.958 324.355 112.854 323.606 111.594H323.439V134.073H316.335V73.8121H323.439V79.7196H323.606C324.74 77.3334 326.707 75.4536 329.129 74.441C331.748 73.3243 334.566 72.7651 337.409 72.7983C340.425 72.7264 343.417 73.3629 346.147 74.6575ZM467.96 72.7983C470.233 72.7797 472.503 72.9927 474.734 73.4341C476.682 73.8074 478.543 74.5515 480.217 75.6266C481.82 76.6807 483.129 78.1326 484.017 79.8433C485.039 81.9054 485.611 84.1649 485.693 86.469H478.582C478.521 85.2269 478.148 84.0208 477.499 82.9637C476.895 82.0511 476.094 81.2885 475.156 80.7334C474.179 80.1597 473.118 79.7467 472.012 79.5099C470.875 79.254 469.714 79.126 468.549 79.1285C467.469 79.1317 466.391 79.2144 465.324 79.3759C464.299 79.5285 463.301 79.8294 462.361 80.2694C461.513 80.6482 460.768 81.2269 460.188 81.9568C459.599 82.7462 459.303 83.719 459.35 84.7061C459.315 85.8786 459.789 87.0081 460.648 87.799C461.611 88.6789 462.733 89.3648 463.951 89.8197C465.418 90.3944 466.928 90.8484 468.467 91.1771C470.133 91.5414 471.808 91.9229 473.48 92.3181C475.248 92.7011 476.994 93.1794 478.711 93.7511C480.317 94.2675 481.838 95.019 483.227 95.9815C484.524 96.905 485.608 98.1008 486.405 99.4868C487.258 101.092 487.676 102.897 487.614 104.717C487.704 107.025 487.138 109.311 485.982 111.305C484.912 113.03 483.452 114.474 481.722 115.518C479.891 116.615 477.881 117.374 475.786 117.759C473.621 118.174 471.423 118.385 469.22 118.388C466.913 118.4 464.612 118.147 462.361 117.635C460.294 117.175 458.33 116.329 456.571 115.14C454.886 113.975 453.51 112.41 452.563 110.584C451.493 108.451 450.92 106.1 450.887 103.71H457.998C458.008 105.117 458.381 106.497 459.081 107.714L459.105 107.693C459.757 108.772 460.663 109.673 461.741 110.315C462.883 110.976 464.126 111.44 465.419 111.69C466.808 111.979 468.224 112.122 469.642 112.116C470.817 112.113 471.99 112.028 473.153 111.862C474.325 111.708 475.471 111.395 476.559 110.931C477.564 110.504 478.442 109.82 479.106 108.948C479.805 107.983 480.158 106.808 480.108 105.614C480.198 103.935 479.403 102.333 478.017 101.401C476.414 100.343 474.65 99.5566 472.796 99.0744C470.698 98.4879 468.427 97.9529 465.984 97.4695C463.651 97.0336 461.369 96.3565 459.173 95.4488C457.172 94.6475 455.382 93.3902 453.942 91.7751C452.454 89.9227 451.709 87.5742 451.855 85.194C451.8 83.2073 452.305 81.2456 453.312 79.5374C454.26 77.9917 455.54 76.6809 457.058 75.7022C458.655 74.6887 460.406 73.9468 462.242 73.5062C464.113 73.0393 466.032 72.8016 467.96 72.7983ZM391.81 75.2039C394.28 76.7478 396.368 78.8413 397.913 81.3245C399.445 83.8105 400.523 86.5541 401.094 89.4245C401.662 92.1704 401.9 94.9754 401.802 97.7788H369.449C369.391 99.6193 369.621 101.458 370.13 103.226C370.609 104.901 371.435 106.454 372.555 107.783C373.72 109.149 375.178 110.23 376.818 110.944C378.747 111.775 380.829 112.179 382.925 112.13C385.553 112.242 388.148 111.502 390.329 110.016C392.351 108.44 393.709 106.151 394.129 103.607H401.155C400.521 107.958 398.28 111.906 394.882 114.659L394.841 114.656C391.294 117.231 386.995 118.538 382.628 118.367C379.55 118.441 376.491 117.868 373.644 116.683C371.185 115.617 368.997 114.001 367.245 111.958C365.466 109.834 364.141 107.362 363.353 104.697C362.461 101.71 361.97 98.6155 361.892 95.4969C361.855 92.3931 362.365 89.3073 363.397 86.3831C364.334 83.7409 365.77 81.3066 367.623 79.2144C369.415 77.1982 371.608 75.5868 374.06 74.4857C376.634 73.3401 379.421 72.7647 382.233 72.7983C385.587 72.6706 388.907 73.5047 391.81 75.2039ZM280.535 73.8087L290.905 89.0843L301.694 73.8087H310.225L295.335 93.8989L312.061 117.443H302.954L290.905 99.3837L278.862 117.443H270.253L286.471 94.4866L271.418 73.8087H280.535ZM430.753 72.7949V80.3897C428.274 80.3276 425.806 80.7296 423.472 81.5753C421.584 82.2792 419.913 83.4714 418.626 85.0325C417.346 86.6593 416.432 88.5471 415.946 90.5654C415.358 93.0083 415.076 95.516 415.108 98.0297V117.443H408.021V73.7983L414.696 73.8087V83.0084H414.866C416.261 79.8733 418.452 77.1657 421.218 75.1592C424.072 73.3824 427.408 72.5554 430.753 72.7949ZM265.734 57.1859V63.9353H232.447V83.0943H263.476V89.8437H232.447V110.69H265.986V117.44H224.499V57.1859H265.734ZM443.633 73.7949V117.44H436.529V73.7949H443.633ZM330.291 80.5615C328.659 81.4787 327.26 82.7657 326.204 84.3212C325.116 85.9178 324.334 87.7058 323.898 89.5929C323.423 91.5533 323.182 93.5645 323.183 95.5828C323.18 97.675 323.433 99.7596 323.936 101.789C324.392 103.683 325.201 105.472 326.32 107.061C327.427 108.598 328.872 109.855 330.543 110.731C332.485 111.712 334.638 112.191 336.809 112.127C338.952 112.209 341.079 111.718 342.973 110.704C344.583 109.779 345.946 108.474 346.944 106.9C347.983 105.247 348.72 103.419 349.121 101.504C349.572 99.4538 349.8 97.36 349.802 95.2598C349.805 93.2486 349.538 91.2463 349.008 89.3076L348.981 89.2973C348.489 87.4331 347.668 85.6739 346.556 84.1047C345.465 82.5812 344.034 81.339 342.377 80.4791C340.522 79.5432 338.468 79.0796 336.394 79.1285C334.271 79.0647 332.168 79.5585 330.291 80.5615ZM381.852 79.1319C380.144 79.1068 378.449 79.4367 376.873 80.101C375.438 80.7185 374.143 81.6234 373.065 82.7609C371.996 83.9013 371.144 85.2305 370.552 86.6821C369.936 88.2032 369.57 89.8155 369.469 91.4555H394.31C394.201 89.7994 393.819 88.1733 393.179 86.6443V86.6408C392.577 85.1751 391.695 83.8428 390.584 82.7197C388.274 80.3816 385.124 79.0873 381.852 79.1319ZM492.232 57.5708C493.083 57.5631 493.927 57.7316 494.711 58.0657C495.473 58.3772 496.167 58.836 496.754 59.4162C497.34 59.9963 497.809 60.6847 498.137 61.4438C498.484 62.2432 498.659 63.1075 498.651 63.98C498.661 64.8649 498.486 65.742 498.137 66.554C497.813 67.3251 497.343 68.0253 496.754 68.616C496.17 69.2007 495.475 69.6602 494.711 69.9665C493.925 70.2936 493.082 70.4595 492.232 70.4547C491.382 70.4571 490.539 70.2913 489.752 69.9665C488.989 69.6571 488.295 69.1981 487.709 68.616C486.47 67.4041 485.78 65.7312 485.802 63.9903C485.795 63.1186 485.968 62.255 486.309 61.4541V61.4438C486.982 59.9115 488.216 58.701 489.752 58.0657C490.537 57.7338 491.381 57.5655 492.232 57.5708ZM492.218 58.5433C490.072 58.5159 488.133 59.8307 487.348 61.8459C487.077 62.5311 486.942 63.2631 486.949 64.0006C486.941 64.7528 487.076 65.4996 487.348 66.2001L487.362 66.1897C487.618 66.8369 487.994 67.4293 488.468 67.9355C488.945 68.4309 489.515 68.8258 490.144 69.0971C490.804 69.3815 491.514 69.5265 492.232 69.5233C492.942 69.5268 493.646 69.3817 494.299 69.0971C494.926 68.8282 495.493 68.433 495.964 67.9355C496.443 67.4314 496.821 66.8386 497.078 66.1897C497.35 65.4893 497.485 64.7425 497.476 63.9903C497.484 63.2528 497.348 62.5208 497.078 61.8356C496.823 61.1943 496.444 60.6103 495.964 60.1173C494.982 59.0973 493.628 58.5284 492.218 58.5433ZM494.585 60.7977C495.038 61.2081 495.275 61.8076 495.229 62.4198C495.274 62.9774 495.065 63.5255 494.66 63.9079C494.262 64.2338 493.775 64.4282 493.264 64.4646L495.399 67.7912H494.183L492.14 64.5505H490.91V67.7912H489.756V60.2651H492.616C493.314 60.2109 494.008 60.3988 494.585 60.7977ZM443.627 57.1825V65.9629H436.522V57.1825H443.627ZM492.426 61.217H490.89V63.6226L492.102 63.6054C492.364 63.6054 492.61 63.6054 492.848 63.5814C493.062 63.5634 493.272 63.5136 493.471 63.4336C493.647 63.3517 493.798 63.2235 493.907 63.0625C494.025 62.8538 494.081 62.6151 494.067 62.3751C494.077 62.164 494.027 61.9545 493.924 61.7703C493.83 61.6246 493.7 61.5062 493.546 61.4266C493.382 61.3366 493.201 61.2816 493.015 61.2651C492.82 61.234 492.623 61.2179 492.426 61.217Z" fill="#232323"/>
</svg>
