<svg width="719" height="513" viewBox="0 0 719 513" fill="none" xmlns="http://www.w3.org/2000/svg">
<path d="M39.5927 160.429L39.9968 480.51" stroke="black" stroke-opacity="0.1"/>
<path d="M204.557 160.312L205.599 480.51" stroke="black" stroke-opacity="0.1"/>
<path d="M370.949 160.312L371.199 480.51" stroke="black" stroke-opacity="0.1"/>
<path d="M535.815 160.312L535.395 480.51" stroke="black" stroke-opacity="0.1"/>
<path d="M702.208 160.312L702.4 480.51" stroke="black" stroke-opacity="0.1"/>
<path d="M40.6984 481.365H701.698" stroke="black" stroke-opacity="0.1"/>
<path d="M40.6984 400.995H701.698" stroke="black" stroke-opacity="0.1"/>
<path d="M40.6984 320.625H701.698" stroke="black" stroke-opacity="0.1"/>
<path d="M40.6984 241.965H701.698" stroke="black" stroke-opacity="0.1"/>
<path d="M39.5927 160.429L701.698 161.595" stroke="black" stroke-opacity="0.1"/>
<path d="M40.6984 481.365H701.698" stroke="black" stroke-opacity="0.1"/>
<path d="M39.5927 162.294L39.9968 480.51" stroke="black" stroke-opacity="0.1"/>
<path d="M22.7935 502.36C23.1223 502.36 23.3925 502.326 23.6041 502.257C23.9817 502.13 24.2909 501.886 24.5318 501.525C24.7239 501.235 24.8622 500.864 24.9469 500.412C24.9957 500.141 25.0201 499.891 25.0201 499.66C25.0201 498.771 24.8427 498.081 24.4879 497.589C24.1363 497.098 23.5683 496.852 22.7838 496.852H21.0601V502.36H22.7935ZM20.0836 496.017H22.9888C23.9752 496.017 24.7402 496.367 25.2838 497.067C25.7688 497.698 26.0113 498.507 26.0113 499.494C26.0113 500.255 25.8681 500.944 25.5816 501.559C25.0771 502.646 24.2096 503.19 22.9791 503.19H20.0836V496.017ZM29.3267 497.843C29.6978 497.843 30.0575 497.931 30.4058 498.107C30.7541 498.28 31.0194 498.504 31.2017 498.781C31.3775 499.044 31.4947 499.352 31.5533 499.704C31.6054 499.945 31.6314 500.329 31.6314 500.856H27.7984C27.8147 501.387 27.94 501.813 28.1744 502.135C28.4088 502.454 28.7717 502.614 29.2633 502.614C29.7222 502.614 30.0885 502.462 30.3619 502.16C30.5181 501.984 30.6288 501.78 30.6939 501.549H31.5582C31.5354 501.741 31.4589 501.956 31.3287 502.194C31.2017 502.428 31.0585 502.62 30.899 502.77C30.6321 503.03 30.3017 503.206 29.9078 503.297C29.6962 503.35 29.4569 503.376 29.19 503.376C28.539 503.376 27.9872 503.14 27.5347 502.668C27.0823 502.192 26.856 501.528 26.856 500.675C26.856 499.836 27.0839 499.154 27.5396 498.629C27.9954 498.105 28.5911 497.843 29.3267 497.843ZM30.7281 500.158C30.6923 499.777 30.6093 499.473 30.4791 499.245C30.2382 498.822 29.8362 498.61 29.273 498.61C28.8694 498.61 28.5308 498.756 28.2574 499.049C27.984 499.339 27.8391 499.709 27.8228 500.158H30.7281ZM34.732 497.809C35.3212 497.809 35.7997 497.952 36.1676 498.239C36.5387 498.525 36.7616 499.018 36.8365 499.718H35.982C35.9299 499.396 35.8111 499.129 35.6256 498.918C35.44 498.703 35.1422 498.595 34.732 498.595C34.1721 498.595 33.7717 498.869 33.5308 499.416C33.3746 499.77 33.2965 500.208 33.2965 500.729C33.2965 501.253 33.4071 501.694 33.6285 502.052C33.8499 502.41 34.1982 502.589 34.6734 502.589C35.038 502.589 35.3261 502.479 35.5377 502.257C35.7525 502.033 35.9006 501.727 35.982 501.339H36.8365C36.7388 502.033 36.4947 502.541 36.1041 502.863C35.7135 503.182 35.2138 503.341 34.6051 503.341C33.9215 503.341 33.3762 503.092 32.9693 502.594C32.5624 502.093 32.359 501.468 32.359 500.719C32.359 499.801 32.5819 499.087 33.0279 498.576C33.4739 498.065 34.0419 497.809 34.732 497.809ZM40.1666 503.19C40.1991 502.588 40.3228 502.064 40.5377 501.618C40.7558 501.172 41.179 500.766 41.8072 500.402L42.7447 499.86C43.1646 499.616 43.4592 499.407 43.6285 499.235C43.8954 498.965 44.0289 498.655 44.0289 498.307C44.0289 497.9 43.9068 497.578 43.6627 497.34C43.4185 497.1 43.093 496.979 42.6861 496.979C42.0839 496.979 41.6672 497.207 41.4361 497.663C41.3124 497.907 41.2441 498.245 41.231 498.678H40.3375C40.3472 498.07 40.4596 497.573 40.6744 497.189C41.0553 496.512 41.7275 496.173 42.691 496.173C43.4918 496.173 44.0761 496.39 44.4439 496.823C44.815 497.256 45.0006 497.738 45.0006 498.268C45.0006 498.828 44.8036 499.307 44.4097 499.704C44.1819 499.935 43.7734 500.215 43.1842 500.544L42.5152 500.915C42.1962 501.09 41.9456 501.258 41.7633 501.418C41.4377 501.701 41.2327 502.015 41.148 502.36H44.9664V503.19H40.1666ZM48.1256 496.198C49.0305 496.198 49.6848 496.571 50.0885 497.316C50.401 497.892 50.5572 498.682 50.5572 499.684C50.5572 500.635 50.4156 501.421 50.1324 502.043C49.7222 502.934 49.0517 503.38 48.1207 503.38C47.2808 503.38 46.6558 503.016 46.2457 502.287C45.9039 501.678 45.733 500.861 45.733 499.836C45.733 499.041 45.8355 498.359 46.0406 497.79C46.4247 496.728 47.1197 496.198 48.1256 496.198ZM48.1158 502.58C48.5715 502.58 48.9345 502.378 49.2047 501.974C49.4749 501.571 49.6099 500.819 49.6099 499.718C49.6099 498.924 49.5123 498.271 49.317 497.76C49.1217 497.246 48.7424 496.989 48.1793 496.989C47.6617 496.989 47.2825 497.233 47.0416 497.721C46.804 498.206 46.6851 498.922 46.6851 499.87C46.6851 500.583 46.7616 501.155 46.9146 501.588C47.149 502.249 47.5494 502.58 48.1158 502.58ZM51.2994 503.19C51.3319 502.588 51.4556 502.064 51.6705 501.618C51.8886 501.172 52.3118 500.766 52.94 500.402L53.8775 499.86C54.2974 499.616 54.592 499.407 54.7613 499.235C55.0282 498.965 55.1617 498.655 55.1617 498.307C55.1617 497.9 55.0396 497.578 54.7955 497.34C54.5513 497.1 54.2258 496.979 53.8189 496.979C53.2167 496.979 52.8 497.207 52.5689 497.663C52.4452 497.907 52.3769 498.245 52.3638 498.678H51.4703C51.4801 498.07 51.5924 497.573 51.8072 497.189C52.1881 496.512 52.8603 496.173 53.8238 496.173C54.6246 496.173 55.2089 496.39 55.5767 496.823C55.9478 497.256 56.1334 497.738 56.1334 498.268C56.1334 498.828 55.9364 499.307 55.5426 499.704C55.3147 499.935 54.9062 500.215 54.317 500.544L53.648 500.915C53.329 501.09 53.0784 501.258 52.8961 501.418C52.5706 501.701 52.3655 502.015 52.2808 502.36H56.0992V503.19H51.2994ZM59.2584 496.198C60.1633 496.198 60.8176 496.571 61.2213 497.316C61.5338 497.892 61.69 498.682 61.69 499.684C61.69 500.635 61.5484 501.421 61.2652 502.043C60.8551 502.934 60.1845 503.38 59.2535 503.38C58.4137 503.38 57.7887 503.016 57.3785 502.287C57.0367 501.678 56.8658 500.861 56.8658 499.836C56.8658 499.041 56.9683 498.359 57.1734 497.79C57.5575 496.728 58.2525 496.198 59.2584 496.198ZM59.2486 502.58C59.7043 502.58 60.0673 502.378 60.3375 501.974C60.6077 501.571 60.7428 500.819 60.7428 499.718C60.7428 498.924 60.6451 498.271 60.4498 497.76C60.2545 497.246 59.8752 496.989 59.3121 496.989C58.7945 496.989 58.4153 497.233 58.1744 497.721C57.9368 498.206 57.818 498.922 57.818 499.87C57.818 500.583 57.8944 501.155 58.0474 501.588C58.2818 502.249 58.6822 502.58 59.2486 502.58Z" fill="black" fill-opacity="0.7"/>
<path d="M185.548 496.017H186.94L189.001 502.082L191.046 496.017H192.423V503.19H191.501V498.957C191.501 498.81 191.504 498.568 191.51 498.229C191.517 497.891 191.52 497.528 191.52 497.14L189.474 503.19H188.512L186.452 497.14V497.36C186.452 497.536 186.455 497.804 186.461 498.166C186.471 498.524 186.476 498.787 186.476 498.957V503.19H185.548V496.017ZM194.46 501.798C194.46 502.052 194.552 502.253 194.738 502.399C194.923 502.545 195.143 502.619 195.397 502.619C195.706 502.619 196.006 502.547 196.295 502.404C196.784 502.166 197.028 501.777 197.028 501.237V500.529C196.92 500.597 196.782 500.654 196.613 500.7C196.444 500.745 196.278 500.778 196.115 500.797L195.583 500.866C195.264 500.908 195.024 500.975 194.865 501.066C194.595 501.219 194.46 501.463 194.46 501.798ZM196.588 500.021C196.79 499.995 196.925 499.91 196.994 499.767C197.033 499.689 197.052 499.577 197.052 499.43C197.052 499.131 196.945 498.914 196.73 498.781C196.518 498.644 196.214 498.576 195.817 498.576C195.358 498.576 195.032 498.699 194.84 498.947C194.733 499.084 194.663 499.287 194.63 499.557H193.81C193.826 498.913 194.035 498.465 194.435 498.214C194.839 497.961 195.306 497.834 195.836 497.834C196.452 497.834 196.951 497.951 197.336 498.185C197.716 498.419 197.907 498.784 197.907 499.279V502.292C197.907 502.383 197.925 502.456 197.961 502.511C198 502.567 198.079 502.594 198.2 502.594C198.239 502.594 198.283 502.593 198.332 502.589C198.38 502.583 198.433 502.575 198.488 502.565V503.214C198.351 503.253 198.247 503.278 198.175 503.288C198.104 503.297 198.006 503.302 197.882 503.302C197.58 503.302 197.36 503.195 197.223 502.98C197.152 502.866 197.101 502.705 197.072 502.497C196.893 502.731 196.636 502.934 196.3 503.107C195.965 503.28 195.596 503.366 195.192 503.366C194.707 503.366 194.31 503.219 194.001 502.926C193.695 502.63 193.542 502.261 193.542 501.818C193.542 501.333 193.693 500.957 193.996 500.69C194.298 500.423 194.696 500.259 195.187 500.197L196.588 500.021ZM199.377 497.961H200.211V498.864C200.28 498.688 200.447 498.475 200.714 498.224C200.981 497.97 201.289 497.843 201.637 497.843C201.654 497.843 201.681 497.845 201.72 497.848C201.759 497.851 201.826 497.858 201.92 497.868V498.795C201.868 498.786 201.82 498.779 201.774 498.776C201.732 498.773 201.684 498.771 201.632 498.771C201.19 498.771 200.85 498.914 200.612 499.201C200.374 499.484 200.255 499.811 200.255 500.182V503.19H199.377V497.961ZM205.133 503.19C205.166 502.588 205.29 502.064 205.504 501.618C205.723 501.172 206.146 500.766 206.774 500.402L207.711 499.86C208.131 499.616 208.426 499.407 208.595 499.235C208.862 498.965 208.996 498.655 208.996 498.307C208.996 497.9 208.874 497.578 208.629 497.34C208.385 497.1 208.06 496.979 207.653 496.979C207.051 496.979 206.634 497.207 206.403 497.663C206.279 497.907 206.211 498.245 206.198 498.678H205.304C205.314 498.07 205.426 497.573 205.641 497.189C206.022 496.512 206.694 496.173 207.658 496.173C208.459 496.173 209.043 496.39 209.411 496.823C209.782 497.256 209.967 497.738 209.967 498.268C209.967 498.828 209.77 499.307 209.377 499.704C209.149 499.935 208.74 500.215 208.151 500.544L207.482 500.915C207.163 501.09 206.912 501.258 206.73 501.418C206.405 501.701 206.199 502.015 206.115 502.36H209.933V503.19H205.133ZM213.092 496.198C213.997 496.198 214.652 496.571 215.055 497.316C215.368 497.892 215.524 498.682 215.524 499.684C215.524 500.635 215.382 501.421 215.099 502.043C214.689 502.934 214.018 503.38 213.087 503.38C212.248 503.38 211.623 503.016 211.212 502.287C210.871 501.678 210.7 500.861 210.7 499.836C210.7 499.041 210.802 498.359 211.007 497.79C211.392 496.728 212.086 496.198 213.092 496.198ZM213.083 502.58C213.538 502.58 213.901 502.378 214.171 501.974C214.442 501.571 214.577 500.819 214.577 499.718C214.577 498.924 214.479 498.271 214.284 497.76C214.088 497.246 213.709 496.989 213.146 496.989C212.628 496.989 212.249 497.233 212.008 497.721C211.771 498.206 211.652 498.922 211.652 499.87C211.652 500.583 211.728 501.155 211.881 501.588C212.116 502.249 212.516 502.58 213.083 502.58ZM216.266 503.19C216.299 502.588 216.422 502.064 216.637 501.618C216.855 501.172 217.279 500.766 217.907 500.402L218.844 499.86C219.264 499.616 219.559 499.407 219.728 499.235C219.995 498.965 220.128 498.655 220.128 498.307C220.128 497.9 220.006 497.578 219.762 497.34C219.518 497.1 219.193 496.979 218.786 496.979C218.183 496.979 217.767 497.207 217.536 497.663C217.412 497.907 217.344 498.245 217.331 498.678H216.437C216.447 498.07 216.559 497.573 216.774 497.189C217.155 496.512 217.827 496.173 218.791 496.173C219.591 496.173 220.176 496.39 220.544 496.823C220.915 497.256 221.1 497.738 221.1 498.268C221.1 498.828 220.903 499.307 220.509 499.704C220.281 499.935 219.873 500.215 219.284 500.544L218.615 500.915C218.296 501.09 218.045 501.258 217.863 501.418C217.537 501.701 217.332 502.015 217.248 502.36H221.066V503.19H216.266ZM222.477 498.239V497.565C223.112 497.503 223.555 497.401 223.805 497.257C224.056 497.111 224.243 496.767 224.367 496.227H225.06V503.19H224.123V498.239H222.477Z" fill="black" fill-opacity="0.7"/>
<path d="M354.188 501.051C354.188 501.657 354.098 502.127 353.919 502.462C353.587 503.074 352.955 503.38 352.024 503.38C351.487 503.38 351.028 503.236 350.647 502.946C350.267 502.653 350.076 502.134 350.076 501.388V500.876H350.989V501.388C350.989 501.779 351.076 502.073 351.248 502.272C351.424 502.467 351.696 502.565 352.063 502.565C352.581 502.565 352.92 502.388 353.079 502.033C353.177 501.815 353.226 501.403 353.226 500.797V496.017H354.188V501.051ZM356.429 497.961V501.432C356.429 501.699 356.471 501.917 356.556 502.086C356.712 502.399 357.003 502.555 357.43 502.555C358.042 502.555 358.458 502.282 358.68 501.735C358.8 501.442 358.86 501.04 358.86 500.529V497.961H359.739V503.19H358.909L358.919 502.419C358.805 502.617 358.663 502.785 358.494 502.921C358.159 503.195 357.752 503.332 357.273 503.332C356.528 503.332 356.02 503.083 355.75 502.585C355.604 502.318 355.53 501.961 355.53 501.515V497.961H356.429ZM361.116 497.961H361.951V498.703C362.199 498.397 362.461 498.177 362.737 498.044C363.014 497.91 363.322 497.843 363.66 497.843C364.402 497.843 364.904 498.102 365.164 498.62C365.307 498.903 365.379 499.308 365.379 499.836V503.19H364.485V499.894C364.485 499.575 364.438 499.318 364.344 499.123C364.188 498.797 363.904 498.634 363.494 498.634C363.286 498.634 363.115 498.655 362.981 498.698C362.741 498.769 362.529 498.913 362.347 499.128C362.2 499.3 362.104 499.479 362.059 499.665C362.016 499.847 361.995 500.109 361.995 500.451V503.19H361.116V497.961ZM369.134 503.19C369.166 502.588 369.29 502.064 369.505 501.618C369.723 501.172 370.146 500.766 370.774 500.402L371.712 499.86C372.132 499.616 372.426 499.407 372.596 499.235C372.863 498.965 372.996 498.655 372.996 498.307C372.996 497.9 372.874 497.578 372.63 497.34C372.386 497.1 372.06 496.979 371.653 496.979C371.051 496.979 370.634 497.207 370.403 497.663C370.28 497.907 370.211 498.245 370.198 498.678H369.305C369.314 498.07 369.427 497.573 369.642 497.189C370.022 496.512 370.695 496.173 371.658 496.173C372.459 496.173 373.043 496.39 373.411 496.823C373.782 497.256 373.968 497.738 373.968 498.268C373.968 498.828 373.771 499.307 373.377 499.704C373.149 499.935 372.741 500.215 372.151 500.544L371.482 500.915C371.163 501.09 370.913 501.258 370.73 501.418C370.405 501.701 370.2 502.015 370.115 502.36H373.934V503.19H369.134ZM377.093 496.198C377.998 496.198 378.652 496.571 379.056 497.316C379.368 497.892 379.524 498.682 379.524 499.684C379.524 500.635 379.383 501.421 379.1 502.043C378.689 502.934 378.019 503.38 377.088 503.38C376.248 503.38 375.623 503.016 375.213 502.287C374.871 501.678 374.7 500.861 374.7 499.836C374.7 499.041 374.803 498.359 375.008 497.79C375.392 496.728 376.087 496.198 377.093 496.198ZM377.083 502.58C377.539 502.58 377.902 502.378 378.172 501.974C378.442 501.571 378.577 500.819 378.577 499.718C378.577 498.924 378.48 498.271 378.284 497.76C378.089 497.246 377.71 496.989 377.146 496.989C376.629 496.989 376.25 497.233 376.009 497.721C375.771 498.206 375.652 498.922 375.652 499.87C375.652 500.583 375.729 501.155 375.882 501.588C376.116 502.249 376.517 502.58 377.083 502.58ZM380.267 503.19C380.299 502.588 380.423 502.064 380.638 501.618C380.856 501.172 381.279 500.766 381.907 500.402L382.845 499.86C383.265 499.616 383.559 499.407 383.729 499.235C383.995 498.965 384.129 498.655 384.129 498.307C384.129 497.9 384.007 497.578 383.763 497.34C383.519 497.1 383.193 496.979 382.786 496.979C382.184 496.979 381.767 497.207 381.536 497.663C381.412 497.907 381.344 498.245 381.331 498.678H380.438C380.447 498.07 380.56 497.573 380.774 497.189C381.155 496.512 381.827 496.173 382.791 496.173C383.592 496.173 384.176 496.39 384.544 496.823C384.915 497.256 385.101 497.738 385.101 498.268C385.101 498.828 384.904 499.307 384.51 499.704C384.282 499.935 383.873 500.215 383.284 500.544L382.615 500.915C382.296 501.09 382.046 501.258 381.863 501.418C381.538 501.701 381.333 502.015 381.248 502.36H385.066V503.19H380.267ZM386.478 498.239V497.565C387.112 497.503 387.555 497.401 387.806 497.257C388.056 497.111 388.244 496.767 388.367 496.227H389.061V503.19H388.123V498.239H386.478Z" fill="black" fill-opacity="0.7"/>
<path d="M516.419 500.876C516.441 501.282 516.537 501.613 516.707 501.867C517.029 502.342 517.597 502.58 518.411 502.58C518.775 502.58 519.107 502.528 519.407 502.423C519.986 502.222 520.276 501.86 520.276 501.339C520.276 500.949 520.154 500.67 519.91 500.504C519.662 500.342 519.275 500.2 518.748 500.08L517.776 499.86C517.141 499.717 516.692 499.559 516.428 499.386C515.973 499.087 515.745 498.639 515.745 498.044C515.745 497.399 515.968 496.87 516.414 496.457C516.86 496.043 517.491 495.836 518.308 495.836C519.06 495.836 519.698 496.019 520.222 496.383C520.75 496.745 521.013 497.324 521.013 498.122H520.1C520.051 497.738 519.947 497.443 519.788 497.238C519.491 496.864 518.988 496.676 518.279 496.676C517.706 496.676 517.294 496.797 517.044 497.038C516.793 497.279 516.668 497.558 516.668 497.878C516.668 498.229 516.814 498.486 517.107 498.649C517.299 498.753 517.734 498.883 518.411 499.04L519.417 499.269C519.902 499.38 520.276 499.531 520.54 499.723C520.995 500.058 521.223 500.545 521.223 501.183C521.223 501.977 520.933 502.545 520.354 502.887C519.778 503.229 519.107 503.4 518.342 503.4C517.45 503.4 516.752 503.172 516.248 502.716C515.743 502.264 515.496 501.65 515.505 500.876H516.419ZM524.514 497.843C524.885 497.843 525.245 497.931 525.593 498.107C525.942 498.28 526.207 498.504 526.389 498.781C526.565 499.044 526.682 499.352 526.741 499.704C526.793 499.945 526.819 500.329 526.819 500.856H522.986C523.002 501.387 523.127 501.813 523.362 502.135C523.596 502.454 523.959 502.614 524.451 502.614C524.91 502.614 525.276 502.462 525.549 502.16C525.706 501.984 525.816 501.78 525.881 501.549H526.746C526.723 501.741 526.646 501.956 526.516 502.194C526.389 502.428 526.246 502.62 526.086 502.77C525.82 503.03 525.489 503.206 525.095 503.297C524.884 503.35 524.644 503.376 524.377 503.376C523.726 503.376 523.175 503.14 522.722 502.668C522.27 502.192 522.044 501.528 522.044 500.675C522.044 499.836 522.271 499.154 522.727 498.629C523.183 498.105 523.779 497.843 524.514 497.843ZM525.916 500.158C525.88 499.777 525.797 499.473 525.667 499.245C525.426 498.822 525.024 498.61 524.46 498.61C524.057 498.61 523.718 498.756 523.445 499.049C523.171 499.339 523.027 499.709 523.01 500.158H525.916ZM530.11 502.599C530.52 502.599 530.86 502.428 531.13 502.086C531.404 501.741 531.541 501.227 531.541 500.544C531.541 500.127 531.48 499.769 531.36 499.469C531.132 498.893 530.715 498.605 530.11 498.605C529.501 498.605 529.085 498.909 528.86 499.518C528.739 499.844 528.679 500.257 528.679 500.758C528.679 501.162 528.739 501.505 528.86 501.789C529.088 502.329 529.504 502.599 530.11 502.599ZM527.835 497.985H528.689V498.678C528.865 498.441 529.057 498.257 529.265 498.127C529.561 497.931 529.91 497.834 530.31 497.834C530.903 497.834 531.405 498.061 531.819 498.517C532.232 498.97 532.439 499.617 532.439 500.461C532.439 501.6 532.141 502.414 531.545 502.902C531.168 503.211 530.728 503.366 530.227 503.366C529.833 503.366 529.503 503.28 529.236 503.107C529.08 503.009 528.905 502.842 528.713 502.604V505.275H527.835V497.985ZM535.92 503.19C535.953 502.588 536.077 502.064 536.292 501.618C536.51 501.172 536.933 500.766 537.561 500.402L538.499 499.86C538.919 499.616 539.213 499.407 539.382 499.235C539.649 498.965 539.783 498.655 539.783 498.307C539.783 497.9 539.661 497.578 539.417 497.34C539.172 497.1 538.847 496.979 538.44 496.979C537.838 496.979 537.421 497.207 537.19 497.663C537.066 497.907 536.998 498.245 536.985 498.678H536.091C536.101 498.07 536.213 497.573 536.428 497.189C536.809 496.512 537.481 496.173 538.445 496.173C539.246 496.173 539.83 496.39 540.198 496.823C540.569 497.256 540.754 497.738 540.754 498.268C540.754 498.828 540.558 499.307 540.164 499.704C539.936 499.935 539.527 500.215 538.938 500.544L538.269 500.915C537.95 501.09 537.699 501.258 537.517 501.418C537.192 501.701 536.987 502.015 536.902 502.36H540.72V503.19H535.92ZM543.879 496.198C544.784 496.198 545.439 496.571 545.842 497.316C546.155 497.892 546.311 498.682 546.311 499.684C546.311 500.635 546.169 501.421 545.886 502.043C545.476 502.934 544.806 503.38 543.875 503.38C543.035 503.38 542.41 503.016 542 502.287C541.658 501.678 541.487 500.861 541.487 499.836C541.487 499.041 541.589 498.359 541.794 497.79C542.179 496.728 542.874 496.198 543.879 496.198ZM543.87 502.58C544.325 502.58 544.688 502.378 544.959 501.974C545.229 501.571 545.364 500.819 545.364 499.718C545.364 498.924 545.266 498.271 545.071 497.76C544.876 497.246 544.496 496.989 543.933 496.989C543.416 496.989 543.036 497.233 542.795 497.721C542.558 498.206 542.439 498.922 542.439 499.87C542.439 500.583 542.516 501.155 542.669 501.588C542.903 502.249 543.303 502.58 543.87 502.58ZM547.053 503.19C547.086 502.588 547.21 502.064 547.424 501.618C547.642 501.172 548.066 500.766 548.694 500.402L549.631 499.86C550.051 499.616 550.346 499.407 550.515 499.235C550.782 498.965 550.916 498.655 550.916 498.307C550.916 497.9 550.794 497.578 550.549 497.34C550.305 497.1 549.98 496.979 549.573 496.979C548.971 496.979 548.554 497.207 548.323 497.663C548.199 497.907 548.131 498.245 548.118 498.678H547.224C547.234 498.07 547.346 497.573 547.561 497.189C547.942 496.512 548.614 496.173 549.578 496.173C550.378 496.173 550.963 496.39 551.331 496.823C551.702 497.256 551.887 497.738 551.887 498.268C551.887 498.828 551.69 499.307 551.296 499.704C551.069 499.935 550.66 500.215 550.071 500.544L549.402 500.915C549.083 501.09 548.832 501.258 548.65 501.418C548.324 501.701 548.119 502.015 548.035 502.36H551.853V503.19H547.053ZM553.264 498.239V497.565C553.899 497.503 554.342 497.401 554.592 497.257C554.843 497.111 555.03 496.767 555.154 496.227H555.847V503.19H554.91V498.239H553.264Z" fill="black" fill-opacity="0.7"/>
<path d="M672.519 501.051C672.519 501.657 672.429 502.127 672.25 502.462C671.918 503.074 671.287 503.38 670.356 503.38C669.819 503.38 669.36 503.236 668.979 502.946C668.598 502.653 668.407 502.134 668.407 501.388V500.876H669.321V501.388C669.321 501.779 669.407 502.073 669.579 502.272C669.755 502.467 670.027 502.565 670.395 502.565C670.912 502.565 671.251 502.388 671.41 502.033C671.508 501.815 671.557 501.403 671.557 500.797V496.017H672.519V501.051ZM674.555 501.798C674.555 502.052 674.648 502.253 674.833 502.399C675.019 502.545 675.239 502.619 675.492 502.619C675.802 502.619 676.101 502.547 676.391 502.404C676.879 502.166 677.123 501.777 677.123 501.237V500.529C677.016 500.597 676.878 500.654 676.708 500.7C676.539 500.745 676.373 500.778 676.21 500.797L675.678 500.866C675.359 500.908 675.12 500.975 674.96 501.066C674.69 501.219 674.555 501.463 674.555 501.798ZM676.684 500.021C676.886 499.995 677.021 499.91 677.089 499.767C677.128 499.689 677.148 499.577 677.148 499.43C677.148 499.131 677.04 498.914 676.825 498.781C676.614 498.644 676.309 498.576 675.912 498.576C675.453 498.576 675.128 498.699 674.936 498.947C674.828 499.084 674.758 499.287 674.726 499.557H673.906C673.922 498.913 674.13 498.465 674.531 498.214C674.934 497.961 675.401 497.834 675.932 497.834C676.547 497.834 677.047 497.951 677.431 498.185C677.812 498.419 678.002 498.784 678.002 499.279V502.292C678.002 502.383 678.02 502.456 678.056 502.511C678.095 502.567 678.175 502.594 678.295 502.594C678.334 502.594 678.378 502.593 678.427 502.589C678.476 502.583 678.528 502.575 678.583 502.565V503.214C678.447 503.253 678.342 503.278 678.271 503.288C678.199 503.297 678.101 503.302 677.978 503.302C677.675 503.302 677.455 503.195 677.319 502.98C677.247 502.866 677.197 502.705 677.167 502.497C676.988 502.731 676.731 502.934 676.396 503.107C676.06 503.28 675.691 503.366 675.287 503.366C674.802 503.366 674.405 503.219 674.096 502.926C673.79 502.63 673.637 502.261 673.637 501.818C673.637 501.333 673.788 500.957 674.091 500.69C674.394 500.423 674.791 500.259 675.282 500.197L676.684 500.021ZM679.447 497.961H680.282V498.703C680.53 498.397 680.792 498.177 681.069 498.044C681.345 497.91 681.653 497.843 681.991 497.843C682.734 497.843 683.235 498.102 683.495 498.62C683.639 498.903 683.71 499.308 683.71 499.836V503.19H682.817V499.894C682.817 499.575 682.769 499.318 682.675 499.123C682.519 498.797 682.236 498.634 681.825 498.634C681.617 498.634 681.446 498.655 681.313 498.698C681.072 498.769 680.86 498.913 680.678 499.128C680.531 499.3 680.435 499.479 680.39 499.665C680.348 499.847 680.326 500.109 680.326 500.451V503.19H679.447V497.961ZM687.465 503.19C687.498 502.588 687.621 502.064 687.836 501.618C688.054 501.172 688.477 500.766 689.106 500.402L690.043 499.86C690.463 499.616 690.758 499.407 690.927 499.235C691.194 498.965 691.327 498.655 691.327 498.307C691.327 497.9 691.205 497.578 690.961 497.34C690.717 497.1 690.392 496.979 689.985 496.979C689.382 496.979 688.966 497.207 688.735 497.663C688.611 497.907 688.543 498.245 688.53 498.678H687.636C687.646 498.07 687.758 497.573 687.973 497.189C688.354 496.512 689.026 496.173 689.989 496.173C690.79 496.173 691.375 496.39 691.742 496.823C692.114 497.256 692.299 497.738 692.299 498.268C692.299 498.828 692.102 499.307 691.708 499.704C691.48 499.935 691.072 500.215 690.483 500.544L689.814 500.915C689.495 501.09 689.244 501.258 689.062 501.418C688.736 501.701 688.531 502.015 688.447 502.36H692.265V503.19H687.465ZM695.424 496.198C696.329 496.198 696.983 496.571 697.387 497.316C697.699 497.892 697.856 498.682 697.856 499.684C697.856 500.635 697.714 501.421 697.431 502.043C697.021 502.934 696.35 503.38 695.419 503.38C694.579 503.38 693.954 503.016 693.544 502.287C693.202 501.678 693.031 500.861 693.031 499.836C693.031 499.041 693.134 498.359 693.339 497.79C693.723 496.728 694.418 496.198 695.424 496.198ZM695.414 502.58C695.87 502.58 696.233 502.378 696.503 501.974C696.773 501.571 696.908 500.819 696.908 499.718C696.908 498.924 696.811 498.271 696.615 497.76C696.42 497.246 696.041 496.989 695.478 496.989C694.96 496.989 694.581 497.233 694.34 497.721C694.102 498.206 693.984 498.922 693.984 499.87C693.984 500.583 694.06 501.155 694.213 501.588C694.447 502.249 694.848 502.58 695.414 502.58ZM698.598 503.19C698.63 502.588 698.754 502.064 698.969 501.618C699.187 501.172 699.61 500.766 700.239 500.402L701.176 499.86C701.596 499.616 701.891 499.407 702.06 499.235C702.327 498.965 702.46 498.655 702.46 498.307C702.46 497.9 702.338 497.578 702.094 497.34C701.85 497.1 701.524 496.979 701.117 496.979C700.515 496.979 700.099 497.207 699.867 497.663C699.744 497.907 699.675 498.245 699.662 498.678H698.769C698.779 498.07 698.891 497.573 699.106 497.189C699.487 496.512 700.159 496.173 701.122 496.173C701.923 496.173 702.507 496.39 702.875 496.823C703.246 497.256 703.432 497.738 703.432 498.268C703.432 498.828 703.235 499.307 702.841 499.704C702.613 499.935 702.205 500.215 701.615 500.544L700.947 500.915C700.628 501.09 700.377 501.258 700.195 501.418C699.869 501.701 699.664 502.015 699.579 502.36H703.398V503.19H698.598ZM704.164 503.19C704.197 502.588 704.321 502.064 704.535 501.618C704.753 501.172 705.177 500.766 705.805 500.402L706.742 499.86C707.162 499.616 707.457 499.407 707.626 499.235C707.893 498.965 708.027 498.655 708.027 498.307C708.027 497.9 707.905 497.578 707.66 497.34C707.416 497.1 707.091 496.979 706.684 496.979C706.082 496.979 705.665 497.207 705.434 497.663C705.31 497.907 705.242 498.245 705.229 498.678H704.335C704.345 498.07 704.457 497.573 704.672 497.189C705.053 496.512 705.725 496.173 706.689 496.173C707.489 496.173 708.074 496.39 708.442 496.823C708.813 497.256 708.998 497.738 708.998 498.268C708.998 498.828 708.801 499.307 708.407 499.704C708.18 499.935 707.771 500.215 707.182 500.544L706.513 500.915C706.194 501.09 705.943 501.258 705.761 501.418C705.435 501.701 705.23 502.015 705.146 502.36H708.964V503.19H704.164Z" fill="black" fill-opacity="0.7"/>
<path d="M22.055 474.299V473.625C22.6897 473.563 23.1325 473.461 23.3831 473.317C23.6338 473.171 23.8209 472.827 23.9446 472.287H24.638V479.25H23.7005V474.299H22.055Z" fill="black" fill-opacity="0.7"/>
<path d="M21.4104 398.88C21.443 398.278 21.5667 397.754 21.7815 397.308C21.9996 396.862 22.4228 396.456 23.0511 396.092L23.9886 395.55C24.4085 395.306 24.7031 395.097 24.8724 394.925C25.1393 394.655 25.2727 394.345 25.2727 393.997C25.2727 393.59 25.1507 393.268 24.9065 393.03C24.6624 392.789 24.3369 392.669 23.93 392.669C23.3278 392.669 22.9111 392.897 22.68 393.353C22.5563 393.597 22.4879 393.935 22.4749 394.368H21.5813C21.5911 393.76 21.7034 393.263 21.9183 392.879C22.2991 392.202 22.9713 391.863 23.9349 391.863C24.7356 391.863 25.32 392.08 25.6878 392.513C26.0589 392.946 26.2444 393.427 26.2444 393.958C26.2444 394.518 26.0475 394.996 25.6536 395.394C25.4257 395.625 25.0172 395.905 24.428 396.233L23.7591 396.605C23.4401 396.78 23.1894 396.948 23.0071 397.107C22.6816 397.391 22.4765 397.705 22.3919 398.05H26.2102V398.88H21.4104Z" fill="black" fill-opacity="0.7"/>
<path d="M23.6956 320.41C22.8688 320.41 22.2682 320.184 21.8938 319.732C21.5227 319.276 21.3372 318.723 21.3372 318.072H22.2552C22.2942 318.524 22.3789 318.853 22.5091 319.058C22.7369 319.426 23.1487 319.61 23.7444 319.61C24.2067 319.61 24.5778 319.486 24.8577 319.239C25.1377 318.991 25.2776 318.672 25.2776 318.281C25.2776 317.8 25.1295 317.463 24.8333 317.271C24.5403 317.079 24.1318 316.983 23.6077 316.983C23.5491 316.983 23.4889 316.984 23.427 316.988C23.3685 316.988 23.3082 316.989 23.2464 316.992V316.216C23.3375 316.226 23.414 316.232 23.4759 316.236C23.5377 316.239 23.6045 316.24 23.6761 316.24C24.0048 316.24 24.275 316.188 24.4866 316.084C24.8577 315.902 25.0433 315.576 25.0433 315.108C25.0433 314.759 24.9196 314.491 24.6722 314.302C24.4248 314.113 24.1367 314.019 23.8079 314.019C23.222 314.019 22.8167 314.214 22.5921 314.605C22.4684 314.82 22.3984 315.126 22.3821 315.523H21.513C21.513 315.002 21.6172 314.559 21.8255 314.195C22.1836 313.544 22.8134 313.218 23.7151 313.218C24.428 313.218 24.9798 313.378 25.3704 313.697C25.761 314.012 25.9563 314.471 25.9563 315.073C25.9563 315.503 25.8408 315.851 25.6097 316.118C25.4664 316.284 25.2809 316.415 25.053 316.509C25.4209 316.61 25.7073 316.805 25.9124 317.095C26.1207 317.381 26.2249 317.733 26.2249 318.15C26.2249 318.817 26.0052 319.361 25.5657 319.781C25.1263 320.2 24.5029 320.41 23.6956 320.41Z" fill="black" fill-opacity="0.7"/>
<path d="M24.4036 237.374V234.205L22.1624 237.374H24.4036ZM24.4183 239.85V238.141H21.3519V237.282L24.555 232.838H25.2972V237.374H26.3274V238.141H25.2972V239.85H24.4183Z" fill="black" fill-opacity="0.7"/>
<path d="M22.3333 157.698C22.3919 158.199 22.6246 158.546 23.0315 158.738C23.2399 158.835 23.4808 158.884 23.7542 158.884C24.275 158.884 24.6608 158.718 24.9114 158.386C25.1621 158.054 25.2874 157.686 25.2874 157.283C25.2874 156.794 25.1377 156.417 24.8382 156.15C24.542 155.883 24.1855 155.75 23.7688 155.75C23.4661 155.75 23.2057 155.808 22.9876 155.925C22.7727 156.042 22.5888 156.205 22.4358 156.414L21.6741 156.37L22.2063 152.605H25.8392V153.455H22.8655L22.5677 155.398C22.7304 155.274 22.8851 155.181 23.0315 155.12C23.292 155.012 23.5931 154.958 23.9349 154.958C24.5761 154.958 25.1198 155.165 25.5657 155.579C26.0117 155.992 26.2347 156.516 26.2347 157.151C26.2347 157.812 26.0296 158.394 25.6194 158.899C25.2125 159.403 24.5615 159.656 23.6663 159.656C23.0966 159.656 22.5921 159.496 22.1526 159.177C21.7164 158.855 21.4723 158.362 21.4202 157.698H22.3333Z" fill="black" fill-opacity="0.7"/>
<path d="M40.6984 200.07C40.6984 200.07 138.094 217.17 204.194 217.17C270.294 217.17 305.098 262.485 371.198 262.485C437.298 262.485 470.699 304.38 536.799 304.38C602.899 304.38 701.698 360.81 701.698 360.81" stroke="#354E43" stroke-width="2"/>
<path d="M40.6987 206.91C39.2102 206.91 37.7825 206.19 36.7298 204.907C35.6771 203.625 35.0855 201.886 35.0851 200.072C35.0848 198.258 35.6757 196.518 36.7278 195.235C37.78 193.952 39.2074 193.231 40.6959 193.23C42.1845 193.229 43.6124 193.949 44.6657 195.23C45.7189 196.512 46.3112 198.251 46.3123 200.065C46.3134 201.879 45.7233 203.619 44.6716 204.902C43.6199 206.186 42.1929 206.908 40.7043 206.91L40.6987 206.91Z" fill="#E0CCB2"/>
<path d="M204.897 224.01C203.408 224.01 201.981 223.29 200.928 222.007C199.875 220.725 199.284 218.985 199.283 217.172C199.283 215.358 199.874 213.618 200.926 212.335C201.978 211.052 203.406 210.331 204.894 210.33C206.383 210.329 207.811 211.049 208.864 212.33C209.917 213.612 210.509 215.351 210.511 217.165C210.512 218.979 209.922 220.719 208.87 222.002C207.818 223.286 206.391 224.008 204.903 224.01L204.897 224.01Z" fill="#E0CCB2"/>
<path d="M371.9 270.18C370.411 270.18 368.984 269.46 367.931 268.177C366.878 266.895 366.287 265.155 366.286 263.342C366.286 261.528 366.877 259.788 367.929 258.505C368.981 257.222 370.408 256.501 371.897 256.5C373.386 256.499 374.814 257.219 375.867 258.5C376.92 259.782 377.512 261.521 377.513 263.335C377.515 265.149 376.924 266.889 375.873 268.172C374.821 269.456 373.394 270.178 371.905 270.18L371.9 270.18Z" fill="#E0CCB2"/>
<path d="M536.098 311.22C534.61 311.22 533.182 310.499 532.129 309.217C531.077 307.935 530.485 306.195 530.485 304.382C530.484 302.568 531.075 300.828 532.127 299.545C533.179 298.262 534.607 297.541 536.095 297.54C537.584 297.539 539.012 298.258 540.065 299.54C541.118 300.822 541.711 302.561 541.712 304.375C541.713 306.188 541.123 307.929 540.071 309.212C539.019 310.496 537.592 311.218 536.104 311.22H536.098Z" fill="#E0CCB2"/>
<path d="M701.698 367.65C700.209 367.65 698.782 366.93 697.729 365.647C696.676 364.365 696.084 362.625 696.084 360.812C696.084 358.998 696.675 357.258 697.727 355.975C698.779 354.692 700.206 353.971 701.695 353.97C703.183 353.969 704.611 354.689 705.665 355.97C706.718 357.252 707.31 358.991 707.311 360.805C707.312 362.619 706.722 364.359 705.671 365.642C704.619 366.926 703.192 367.648 701.703 367.65H701.698Z" fill="#E0CCB2"/>
</svg>
