<svg width="40" height="40" viewBox="0 0 40 40" fill="none" xmlns="http://www.w3.org/2000/svg">
<path d="M25.8333 18.3333C27.2141 18.3333 28.3333 17.214 28.3333 15.8333C28.3333 14.4526 27.2141 13.3333 25.8333 13.3333C24.4526 13.3333 23.3333 14.4526 23.3333 15.8333C23.3333 17.214 24.4526 18.3333 25.8333 18.3333Z" fill="#354E43"/>
<path d="M14.1667 18.3333C15.5474 18.3333 16.6667 17.214 16.6667 15.8333C16.6667 14.4526 15.5474 13.3333 14.1667 13.3333C12.7859 13.3333 11.6667 14.4526 11.6667 15.8333C11.6667 17.214 12.7859 18.3333 14.1667 18.3333Z" fill="#354E43"/>
<path d="M20 26.6666C17.5333 26.6666 15.4167 25.3166 14.25 23.3333H11.4667C12.8 26.75 16.1167 29.1666 20 29.1666C23.8833 29.1666 27.2 26.75 28.5333 23.3333H25.75C24.5833 25.3166 22.4667 26.6666 20 26.6666ZM19.9833 3.33331C10.7833 3.33331 3.33334 10.8 3.33334 20C3.33334 29.2 10.7833 36.6666 19.9833 36.6666C29.2 36.6666 36.6667 29.2 36.6667 20C36.6667 10.8 29.2 3.33331 19.9833 3.33331ZM20 33.3333C12.6333 33.3333 6.66668 27.3666 6.66668 20C6.66668 12.6333 12.6333 6.66665 20 6.66665C27.3667 6.66665 33.3333 12.6333 33.3333 20C33.3333 27.3666 27.3667 33.3333 20 33.3333Z" fill="#354E43"/>
</svg>
