<svg width="500" height="89" viewBox="0 0 500 89" fill="none" xmlns="http://www.w3.org/2000/svg">
<g clip-path="url(#clip0_4_670)">
<path d="M107.737 87.7704H129.95V0.831938H107.737V87.7704ZM254.825 87.7704L277.038 87.6872V0.831938H254.825V87.7704ZM0.416016 0.748738H22.7122L44.5092 50.9151H46.0067L68.1365 0.748738H90.9318L52.9119 87.7704L38.7688 87.8536L0.416016 0.748738ZM147.255 0.831938H169.468L191.181 50.9151H192.845L214.725 0.831938H237.521L199.667 87.7704L185.441 87.8536L147.255 0.831938ZM305.824 0.748738H321.464C323.461 3.57736 325.208 6.0732 326.955 8.31946H328.453C350.666 -8.56906 384.692 1.99665 384.692 30.6156V87.7704H363.062L362.895 34.193C361.814 16.3893 335.358 13.8103 330.2 31.9467C328.702 37.6872 328.203 43.594 328.536 49.584V87.8536L305.74 87.7704L305.824 0.748738ZM453.577 0.166391C478.952 0.166391 499.584 19.8835 499.584 44.01C499.002 68.8852 478.453 88.6023 453.577 88.1032V69.8835C467.554 69.7171 478.702 58.2363 478.536 44.3427C478.369 30.6156 467.305 19.6339 453.577 19.3843V0.166391ZM453.577 88.02C428.702 88.5191 408.153 68.802 407.571 43.9268C407.571 19.8003 428.286 0.0831909 453.577 0.0831909V19.3012C439.601 19.4676 428.453 30.9484 428.619 44.8419C428.785 58.569 439.85 69.5507 453.577 69.8003V88.02Z" fill="#232323"/>
</g>
<defs>
<clipPath id="clip0_4_670">
<rect width="500" height="88.1864" fill="white"/>
</clipPath>
</defs>
</svg>
